<?xml version="1.0" encoding="UTF-8"?>
<svg xmlns="http://www.w3.org/2000/svg" xmlns:xlink="http://www.w3.org/1999/xlink" width="128px" height="128px" viewBox="0 0 128 128" version="1.1">
<g id="surface1">
<path style=" stroke:none;fill-rule:nonzero;fill:rgb(0%,0%,0%);fill-opacity:1;" d="M 63.863281 16.25 C 63.851562 16.976562 63.851562 18.011719 63.863281 18.574219 C 63.898438 19.5 63.875 19.613281 63.574219 19.960938 C 63.1875 20.425781 63.164062 20.914062 63.5 21.25 C 63.8125 21.5625 64.273438 21.574219 64.5625 21.25 C 64.875 20.914062 64.835938 20.449219 64.460938 20.011719 C 64.148438 19.636719 64.148438 19.574219 64.136719 17.726562 C 64.125 15.363281 63.914062 14.238281 63.863281 16.25 Z M 63.863281 16.25 "/>
<path style=" stroke:none;fill-rule:nonzero;fill:rgb(0%,0%,0%);fill-opacity:1;" d="M 24.511719 15.136719 C 24.488281 15.300781 25.113281 18.238281 25.4375 19.5 C 26.363281 23.210938 27.625 26.449219 29.4375 29.75 C 29.789062 30.398438 30.414062 31.550781 30.8125 32.3125 C 31.601562 33.800781 31.601562 33.800781 30.289062 32.585938 C 29.75 32.074219 29.5 32.0625 29.5 32.539062 C 29.5 32.6875 29.449219 32.898438 29.386719 33 C 29.238281 33.210938 28.375 32.574219 26.375 30.761719 C 25.25 29.75 25.363281 29.886719 27.1875 31.738281 C 29.488281 34.074219 31.386719 35.75 33.9375 37.6875 C 36.386719 39.550781 39.824219 42 42.039062 43.460938 C 43.113281 44.1875 44 44.789062 44 44.8125 C 44 44.886719 39 41.886719 37.5 40.914062 C 36.773438 40.449219 36.148438 40.074219 36.101562 40.101562 C 36.039062 40.113281 36 40.074219 36 40 C 36 39.9375 35.9375 39.875 35.863281 39.875 C 35.699219 39.875 34.988281 39.3125 32.125 36.949219 C 28.664062 34.101562 24.148438 29.210938 22.085938 26.085938 C 21.738281 25.550781 21.425781 25.148438 21.414062 25.210938 C 21.351562 25.386719 21.824219 27.375 22.273438 28.8125 C 23.074219 31.414062 24.148438 33.800781 25.613281 36.164062 C 26.0625 36.898438 26.523438 37.648438 26.625 37.824219 C 26.800781 38.113281 26.789062 38.175781 26.386719 38.914062 C 25.488281 40.550781 25.414062 40.636719 25.039062 40.5 C 24.449219 40.289062 25.476562 41.101562 27.4375 42.425781 C 30.335938 44.363281 36.398438 47.574219 41.148438 49.6875 C 43.050781 50.539062 42.238281 50.3125 39.789062 49.3125 C 33 46.550781 27.988281 43.5625 22.226562 38.824219 C 21.75 38.4375 21.375 38.148438 21.375 38.175781 C 21.375 38.375 22.363281 40.324219 23.1875 41.75 C 24.601562 44.210938 25.261719 45.164062 27.136719 47.414062 C 27.574219 47.9375 27.574219 47.976562 27.011719 49.273438 L 26.8125 49.726562 L 25.898438 49.300781 L 24.988281 48.863281 L 25.25 48.539062 C 25.539062 48.175781 25.585938 47.5 25.335938 47.5 C 25.0625 47.5 24.75 47.925781 24.75 48.289062 C 24.75 48.476562 24.675781 48.625 24.601562 48.625 C 24.5 48.625 24.4375 48.800781 24.4375 49.085938 C 24.425781 49.351562 24.386719 49.789062 24.335938 50.0625 L 24.25 50.5625 L 24.460938 50.085938 C 24.5625 49.835938 24.699219 49.625 24.75 49.625 C 24.800781 49.625 25.25 50.164062 25.738281 50.8125 C 28.25 54.113281 33.664062 57.710938 38.511719 59.300781 C 40.113281 59.824219 40.636719 60.0625 39.925781 59.9375 C 39.726562 59.898438 38.574219 59.738281 37.375 59.5625 C 36.175781 59.386719 34.710938 59.136719 34.125 59.011719 C 33.539062 58.875 33.050781 58.789062 33.023438 58.8125 C 32.925781 58.898438 34.789062 60.460938 35.511719 60.886719 C 37.238281 61.914062 41.949219 63.664062 43.773438 63.949219 C 44.523438 64.074219 44.460938 64.25 43.664062 64.261719 C 43.261719 64.261719 42.289062 64.335938 41.5 64.414062 L 40.0625 64.5625 L 40.8125 65.039062 C 41.851562 65.6875 43.414062 66.4375 44.550781 66.800781 C 45.949219 67.261719 48.386719 67.75 49.273438 67.75 C 50.289062 67.75 50.085938 67.898438 48.726562 68.199219 C 48.113281 68.324219 47.625 68.476562 47.625 68.511719 C 47.625 68.625 49.738281 69.539062 50.75 69.851562 C 52.625 70.449219 55.085938 70.664062 56.636719 70.375 C 57.011719 70.300781 57.648438 70.085938 58.074219 69.886719 L 58.835938 69.523438 L 57.8125 70.8125 C 56.5 72.4375 55.1875 74.289062 53.6875 76.636719 C 50.789062 81.148438 49.148438 85.175781 48.375 89.710938 L 48.085938 91.375 L 47.386719 90.976562 C 46.011719 90.210938 43.914062 88.773438 42.75 87.8125 C 34.675781 81.125 30.363281 70.75 31.425781 60.5 C 31.675781 58.039062 31.6875 58.210938 31.226562 57.949219 C 30.5 57.523438 28.574219 56.226562 28.039062 55.789062 C 27.511719 55.351562 27.511719 55.351562 27.4375 55.648438 C 26.625 59.25 26.460938 64.710938 27.074219 68.863281 C 27.925781 74.761719 30.726562 81.050781 34.710938 86.0625 C 37.511719 89.585938 41.511719 93.039062 45.1875 95.113281 C 45.949219 95.550781 46.613281 95.949219 46.675781 96 C 46.75 96.074219 46.699219 96.601562 46.574219 97.335938 C 45.976562 100.8125 46.074219 103.675781 46.898438 107.039062 C 47.050781 107.636719 47.210938 108.125 47.273438 108.125 C 47.324219 108.125 47.375 107.863281 47.375 107.550781 C 47.375 106.636719 47.9375 104.074219 48.5 102.449219 C 48.976562 101.085938 49.835938 99.164062 49.9375 99.261719 C 49.960938 99.289062 50.0625 99.800781 50.175781 100.386719 C 50.476562 101.960938 51.375 104.539062 52.261719 106.335938 C 53.050781 107.949219 54.738281 110.613281 55.261719 111.0625 L 55.539062 111.3125 L 55.449219 111.0625 C 55.238281 110.488281 54.75 108.125 54.625 107.011719 C 54.550781 106.351562 54.5 105.1875 54.523438 104.4375 C 54.5625 103.085938 54.5625 103.074219 54.738281 103.5625 C 55.25 105.0625 57.164062 108.761719 58.273438 110.425781 C 60.238281 113.335938 63.074219 116.8125 65.601562 119.375 L 67.375 121.1875 L 66.925781 120.1875 C 65.726562 117.511719 65.425781 116.824219 64.851562 115.375 C 63.550781 112.125 62.425781 108.6875 61.875 106.324219 C 61.585938 105.101562 61.5625 104.824219 61.773438 105.1875 C 62.5 106.476562 67.511719 111.449219 69.488281 112.851562 C 70.851562 113.8125 72.25 114.75 72.3125 114.75 C 72.351562 114.75 72.136719 114.449219 71.824219 114.074219 C 69.6875 111.449219 67.164062 106.824219 65.886719 103.199219 L 65.648438 102.523438 L 66.800781 103.363281 C 67.425781 103.824219 68.523438 104.539062 69.25 104.960938 C 70.6875 105.789062 75.039062 108.125 75.136719 108.125 C 75.175781 108.125 74.476562 107.398438 73.574219 106.5 C 72.039062 104.976562 71.949219 104.863281 72.101562 104.613281 C 72.25 104.386719 72.238281 104.3125 72.074219 104.136719 C 71.914062 103.988281 71.824219 103.976562 71.648438 104.085938 C 71.449219 104.199219 71.289062 104.023438 70.289062 102.699219 C 69.011719 100.988281 68.4375 100.148438 68.511719 100.0625 C 68.550781 100.039062 68.960938 99.949219 69.4375 99.875 C 70.726562 99.675781 73.539062 99.039062 74.75 98.675781 C 79.1875 97.351562 84.199219 94.648438 87.75 91.675781 C 94.148438 86.300781 98.625 78.875 100.175781 71.0625 C 100.75 68.148438 100.8125 67.375 100.8125 63.5625 C 100.800781 59.574219 100.675781 58.335938 99.976562 55.25 C 98.113281 47.011719 93.699219 39.949219 86.9375 34.3125 C 84.511719 32.300781 80.75 30.023438 77.875 28.835938 C 72.824219 26.761719 68.101562 25.898438 62.699219 26.039062 C 57.585938 26.175781 53.738281 27.023438 49.1875 29.023438 C 46.585938 30.175781 42.113281 32.925781 42.3125 33.261719 C 42.398438 33.386719 45.574219 35.675781 46.25 36.085938 L 46.6875 36.351562 L 47.6875 35.738281 C 51.363281 33.460938 55.5 32.011719 60.25 31.363281 C 62.101562 31.101562 66.863281 31.136719 68.5625 31.414062 C 73.675781 32.261719 77.5 33.726562 81.488281 36.335938 C 89.3125 41.460938 94.449219 49.261719 96 58.375 C 96.875 63.476562 96.4375 68.625 94.6875 73.9375 C 94.113281 75.699219 92.398438 79.175781 91.25 80.9375 C 86.1875 88.664062 77.851562 93.898438 68.488281 95.238281 C 65.875 95.613281 66.125 95.6875 65.636719 94.4375 C 64.386719 91.238281 63.863281 88.085938 64.300781 86.375 C 64.601562 85.199219 65.011719 84.5625 65.648438 84.289062 C 67.886719 83.335938 69.988281 82.125 71.5625 80.886719 C 72.386719 80.238281 74.300781 78.613281 74.5625 78.3125 C 74.636719 78.238281 74.960938 77.925781 75.300781 77.625 L 75.914062 77.0625 L 75.636719 77.601562 L 75.363281 78.136719 L 75.648438 77.988281 C 77.148438 77.199219 78.988281 75.488281 80.074219 73.863281 C 81.863281 71.164062 82.824219 67.0625 82.300781 64.25 C 82.164062 63.460938 82.523438 64.4375 82.789062 65.574219 C 83.136719 67 83.25 66.863281 83.25 64.960938 C 83.25 63.488281 82.925781 61.800781 82.210938 59.625 C 81.761719 58.238281 81.699219 57.925781 81.699219 56.8125 C 81.6875 55.6875 81.726562 55.488281 82.039062 54.851562 C 82.710938 53.488281 84.023438 52.664062 86.273438 52.199219 C 87.960938 51.851562 89.136719 52 89.523438 52.613281 C 89.789062 53.039062 89.875 52.914062 89.875 52.085938 C 89.875 50.386719 88.863281 49.261719 86.789062 48.625 C 86.113281 48.425781 85.875 48.289062 85.761719 48.050781 C 85.550781 47.574219 84.511719 46.511719 83.9375 46.175781 C 83.289062 45.800781 82.210938 45.425781 81.488281 45.335938 L 80.9375 45.261719 L 81.574219 45.425781 C 83.074219 45.8125 83.800781 46.175781 84.539062 46.898438 C 84.925781 47.289062 85.25 47.664062 85.25 47.738281 C 85.25 47.8125 84.960938 47.6875 84.613281 47.4375 C 83.425781 46.625 81.125 46.125 77.625 45.9375 C 76 45.835938 74.789062 45.625 73.324219 45.164062 C 71.886719 44.710938 71.898438 44.710938 72.414062 45 C 72.675781 45.136719 73.574219 45.449219 74.414062 45.6875 C 76.023438 46.136719 76.125 46.25 74.625 45.9375 C 72.449219 45.476562 70.074219 44.1875 68.335938 42.511719 L 67.488281 41.699219 L 67.738281 42.289062 C 68.363281 43.75 69.75 45.414062 71.226562 46.460938 L 72.011719 47.023438 L 73.414062 47.085938 C 75.164062 47.175781 75.5 47.324219 74.1875 47.4375 C 72.5 47.601562 70.460938 47.324219 68.585938 46.699219 C 68.085938 46.539062 67.675781 46.414062 67.648438 46.4375 C 67.636719 46.449219 67.886719 46.699219 68.210938 46.976562 C 68.960938 47.601562 69.835938 48.074219 70.710938 48.324219 C 71.074219 48.4375 71.375 48.5625 71.375 48.625 C 71.375 48.675781 70.675781 48.863281 69.8125 49.023438 C 68.289062 49.3125 68.261719 49.3125 68.539062 49.523438 C 68.875 49.800781 70.273438 50.25 70.773438 50.25 C 71.351562 50.25 71.164062 50.488281 69.988281 51.226562 C 69.414062 51.601562 69.074219 51.863281 69.25 51.8125 C 69.425781 51.761719 69.898438 51.511719 70.3125 51.25 C 70.726562 50.976562 71.476562 50.5 71.976562 50.175781 C 72.476562 49.863281 72.914062 49.625 72.949219 49.664062 C 73.039062 49.75 70.851562 51.273438 70.039062 51.699219 C 69.6875 51.875 69.125 52.050781 68.800781 52.085938 C 68.460938 52.125 68.175781 52.164062 68.148438 52.175781 C 68.136719 52.199219 68.261719 52.511719 68.425781 52.886719 C 69.175781 54.511719 69.761719 57.164062 69.8125 59.125 L 69.863281 60.5625 L 69.738281 59.5625 C 69.261719 55.675781 67.574219 52.550781 64.050781 49.023438 C 63.199219 48.1875 62.4375 47.5 62.351562 47.5 C 62.261719 47.511719 62.449219 47.738281 62.773438 48.011719 C 63.800781 48.886719 65.699219 51.261719 66.613281 52.8125 C 67.101562 53.625 67.5 54.351562 67.5 54.425781 C 67.5 54.488281 67.300781 54.226562 67.0625 53.824219 C 65.976562 52.011719 64.386719 50.113281 63 48.976562 C 61.4375 47.6875 57.925781 45.1875 59 46.125 C 59.386719 46.460938 58.613281 46.050781 55.3125 44.1875 C 54.011719 43.449219 52.460938 42.574219 51.875 42.25 C 47.226562 39.648438 41.5 35.289062 36.164062 30.261719 C 32.0625 26.414062 28.960938 22.5 25.824219 17.238281 C 24.511719 15.050781 24.511719 15.050781 24.511719 15.136719 Z M 29.875 24.125 C 30.023438 24.324219 30.113281 24.5 30.074219 24.5 C 30.050781 24.5 29.898438 24.324219 29.75 24.125 C 29.601562 23.914062 29.511719 23.75 29.550781 23.75 C 29.574219 23.75 29.726562 23.914062 29.875 24.125 Z M 31.226562 25.875 C 31.550781 26.25 32.261719 27.113281 32.800781 27.773438 C 33.324219 28.449219 33.886719 29.101562 34.039062 29.210938 C 34.1875 29.335938 34.613281 29.773438 34.988281 30.1875 C 35.363281 30.601562 35.050781 30.3125 34.300781 29.5625 C 33.023438 28.273438 31.261719 26.210938 30.449219 25.0625 C 30.101562 24.5625 30.136719 24.613281 31.226562 25.875 Z M 66.074219 26.625 C 66.773438 26.773438 66.976562 27.125 66.363281 27.125 C 66.175781 27.125 65.976562 27.175781 65.9375 27.25 C 65.886719 27.324219 66.023438 27.375 66.273438 27.375 C 66.574219 27.375 66.636719 27.414062 66.511719 27.488281 C 66.375 27.574219 66.460938 27.625 66.824219 27.664062 C 67.300781 27.710938 67.289062 27.710938 66.6875 27.75 L 66.0625 27.789062 L 67.0625 27.960938 L 66.523438 27.988281 C 66.226562 27.988281 65.898438 28.085938 65.800781 28.1875 C 65.636719 28.335938 65.699219 28.375 66.273438 28.460938 L 66.9375 28.550781 L 65.4375 28.824219 L 65.9375 28.925781 C 66.210938 28.976562 66.523438 29.039062 66.625 29.0625 C 66.726562 29.074219 66.5 29.101562 66.125 29.113281 C 65.460938 29.136719 64.726562 29.398438 64.949219 29.523438 C 65.011719 29.5625 65.601562 29.636719 66.25 29.675781 C 68.914062 29.875 72.476562 30.636719 75.011719 31.550781 C 76.949219 32.238281 80.710938 34.113281 81.5625 34.8125 C 81.699219 34.925781 81.5625 34.863281 81.25 34.6875 C 79.835938 33.851562 76.289062 32.210938 74.800781 31.699219 C 71.664062 30.636719 68.289062 30 65.738281 30 C 64.4375 30 64.414062 30 64.261719 30.324219 L 64.113281 30.648438 L 63.824219 30.3125 L 63.523438 29.960938 L 62.039062 30.039062 C 58.351562 30.238281 53.523438 31.449219 50.261719 33.011719 C 49.550781 33.351562 48.9375 33.613281 48.914062 33.574219 C 48.824219 33.488281 50.8125 32.523438 52.25 31.960938 C 55.289062 30.773438 58.175781 30.050781 61.0625 29.75 C 61.824219 29.675781 62.574219 29.585938 62.738281 29.550781 C 63.011719 29.488281 63.023438 29.476562 62.800781 29.3125 C 62.664062 29.210938 62.25 29.125 61.875 29.113281 C 61.238281 29.085938 61.226562 29.074219 61.726562 29.039062 C 62.550781 28.960938 62.335938 28.75 61.414062 28.738281 L 60.5625 28.710938 L 61.460938 28.574219 C 62.363281 28.4375 62.800781 28.25 62.238281 28.25 C 62.0625 28.25 61.875 28.199219 61.8125 28.136719 C 61.738281 28.074219 61.460938 28 61.1875 27.960938 C 60.699219 27.925781 60.710938 27.914062 61.3125 27.886719 C 62.164062 27.851562 61.710938 27.648438 60.6875 27.613281 L 59.9375 27.601562 L 60.5625 27.488281 C 60.914062 27.425781 61.386719 27.324219 61.625 27.261719 C 62.011719 27.164062 61.960938 27.148438 61.1875 27.136719 C 58.5 27.101562 54.148438 28.113281 50.664062 29.574219 C 49.9375 29.875 48.539062 30.539062 47.550781 31.050781 C 46.5625 31.5625 45.75 31.960938 45.75 31.9375 C 45.75 31.914062 46.1875 31.648438 46.726562 31.335938 C 49.9375 29.488281 53.648438 28.101562 57.199219 27.4375 C 58.164062 27.261719 59.164062 27.023438 59.4375 26.925781 C 60.386719 26.585938 63.625 26.261719 64.75 26.398438 C 65.125 26.4375 65.726562 26.539062 66.074219 26.625 Z M 36.261719 30.914062 C 36.851562 31.449219 37.011719 31.664062 36.886719 31.738281 C 36.773438 31.8125 36.761719 31.875 36.863281 31.925781 C 36.9375 31.976562 37 31.949219 37 31.886719 C 37 31.574219 37 31.574219 40.636719 34.5625 C 42.601562 36.164062 44.914062 37.914062 46.351562 38.875 C 46.914062 39.25 47.351562 39.574219 47.324219 39.585938 C 47.25 39.664062 45.476562 38.613281 44.3125 37.824219 C 41.925781 36.175781 41.375 35.773438 39.375 34.175781 C 37.363281 32.550781 36.375 31.664062 36.5 31.5625 C 36.539062 31.539062 36.25 31.1875 35.875 30.800781 C 35.011719 29.898438 35.210938 29.960938 36.261719 30.914062 Z M 49.125 32.0625 C 49.125 32.085938 48.898438 32.238281 48.625 32.375 C 48.351562 32.511719 48.125 32.601562 48.125 32.5625 C 48.125 32.539062 48.335938 32.398438 48.601562 32.261719 C 49.125 31.976562 49.125 31.976562 49.125 32.0625 Z M 29.238281 35.324219 C 29.289062 35.289062 29.488281 35.425781 29.664062 35.636719 C 29.835938 35.851562 30.023438 36.023438 30.085938 36.023438 C 30.136719 36.023438 30.175781 36.0625 30.164062 36.113281 C 30.148438 36.1875 31.226562 37.039062 32.886719 38.261719 C 34.101562 39.148438 33.8125 39.0625 32.5 38.136719 C 30.976562 37.074219 28.6875 35.136719 27.5 33.914062 L 26.3125 32.699219 L 27.710938 34.039062 C 28.488281 34.789062 29.175781 35.363281 29.238281 35.324219 Z M 35.074219 39.761719 C 35.113281 39.835938 35.011719 39.800781 34.824219 39.6875 C 34.648438 39.5625 34.5 39.449219 34.5 39.414062 C 34.5 39.324219 34.988281 39.625 35.074219 39.761719 Z M 36.664062 40.710938 C 36.914062 40.875 37.125 41.039062 37.125 41.074219 C 37.125 41.148438 37.101562 41.136719 36.039062 40.460938 C 35.601562 40.199219 35.25 39.949219 35.25 39.914062 C 35.25 39.863281 35.550781 40.023438 36.664062 40.710938 Z M 89.636719 41.585938 C 89.800781 41.789062 89.789062 41.800781 89.601562 41.636719 C 89.476562 41.550781 89.375 41.449219 89.375 41.425781 C 89.375 41.324219 89.476562 41.386719 89.636719 41.585938 Z M 29 44.574219 C 29 44.601562 28.886719 44.574219 28.75 44.5 C 28.613281 44.425781 28.5 44.335938 28.5 44.300781 C 28.5 44.273438 28.613281 44.300781 28.75 44.375 C 28.886719 44.449219 29 44.539062 29 44.574219 Z M 33.3125 46.914062 C 33.5 47.085938 30.476562 45.550781 30.1875 45.3125 C 30.050781 45.199219 30.675781 45.488281 31.5625 45.949219 C 32.460938 46.414062 33.25 46.835938 33.3125 46.914062 Z M 50.550781 48.4375 C 52.226562 50.101562 53.824219 51.414062 55.75 52.675781 C 56.539062 53.1875 57.300781 53.699219 57.4375 53.8125 C 57.675781 54 57.675781 54 57.375 53.863281 C 56.949219 53.648438 53.949219 51.800781 53.1875 51.261719 C 51.664062 50.199219 49.738281 48.3125 48.648438 46.851562 C 47.875 45.800781 47.800781 45.488281 48.511719 46.3125 C 48.875 46.726562 49.789062 47.6875 50.550781 48.4375 Z M 34.625 47.5 C 35.136719 47.761719 35.511719 47.988281 35.460938 48 C 35.3125 48 33.5 47.148438 33.5 47.074219 C 33.5 46.9375 33.6875 47.011719 34.625 47.5 Z M 82.6875 48.175781 C 82.886719 48.324219 82.898438 48.375 82.761719 48.550781 C 82.675781 48.664062 82.523438 48.75 82.425781 48.75 C 82.226562 48.75 81.863281 48.25 81.949219 48.101562 C 82.050781 47.949219 82.425781 47.976562 82.6875 48.175781 Z M 73.625 48.488281 C 73.375 48.636719 71.585938 49.085938 70.875 49.175781 C 70.101562 49.273438 70.324219 49.1875 72 48.761719 C 73.539062 48.363281 73.960938 48.300781 73.625 48.488281 Z M 87.4375 49.175781 C 88.261719 49.550781 88.824219 50.050781 89.125 50.636719 C 89.460938 51.300781 89.4375 51.324219 88.988281 50.8125 C 88.511719 50.273438 88.074219 50.039062 87.386719 49.925781 C 87.113281 49.875 86.898438 49.789062 86.914062 49.726562 C 86.925781 49.648438 86.773438 49.539062 86.585938 49.476562 C 86.300781 49.375 86.148438 49.398438 85.738281 49.6875 C 85.449219 49.863281 85.210938 50 85.1875 49.976562 C 85.164062 49.949219 85.324219 49.699219 85.539062 49.414062 C 85.875 48.976562 86.011719 48.886719 86.375 48.875 C 86.613281 48.875 87.101562 49.011719 87.4375 49.175781 Z M 28.199219 51.074219 C 32.300781 52.976562 35.949219 54.175781 42.875 55.875 C 45.375 56.5 46.125 56.738281 45 56.5625 C 42.226562 56.148438 36.363281 54.601562 33.398438 53.488281 C 30.261719 52.324219 26.3125 50.5 26.925781 50.5 C 26.949219 50.5 27.523438 50.761719 28.199219 51.074219 Z M 40.648438 60.488281 C 41.699219 60.625 43.824219 60.824219 45.375 60.9375 C 48.789062 61.175781 49.210938 61.261719 46.625 61.175781 C 44.101562 61.085938 38.601562 60.511719 38.386719 60.300781 C 38.289062 60.210938 38.699219 60.25 40.648438 60.488281 Z M 50.5 65.011719 C 50.1875 65.074219 48.726562 65.148438 47.25 65.175781 L 44.5625 65.226562 L 47.164062 65.125 C 48.601562 65.0625 49.835938 64.988281 49.914062 64.949219 C 50 64.925781 50.289062 64.898438 50.5625 64.898438 L 51.0625 64.914062 Z M 59.875 69.585938 C 59.511719 69.988281 59.125 70.398438 59.011719 70.5 C 58.851562 70.664062 58.851562 70.664062 59 70.4375 C 59.425781 69.835938 60.414062 68.75 60.476562 68.8125 C 60.511719 68.835938 60.238281 69.199219 59.875 69.585938 Z M 55.5 75.710938 C 54.949219 76.738281 53.761719 78.625 53.664062 78.625 C 53.625 78.625 53.710938 78.4375 53.851562 78.210938 C 53.976562 78 54.5 77.101562 55 76.226562 C 56 74.488281 56.351562 74.136719 55.5 75.710938 Z M 60.9375 78.476562 C 60.863281 78.539062 60.113281 79.113281 59.25 79.75 C 55.625 82.460938 52.886719 85.273438 50.789062 88.4375 C 49.738281 90.023438 49.625 90.136719 50.125 89.125 C 51.898438 85.550781 55.335938 82.011719 59.976562 78.988281 C 60.824219 78.425781 61.238281 78.210938 60.9375 78.476562 Z M 52.875 86.289062 C 52.875 86.3125 52.75 86.4375 52.601562 86.574219 L 52.3125 86.8125 L 52.550781 86.523438 C 52.773438 86.261719 52.875 86.1875 52.875 86.289062 Z M 60.261719 105.648438 C 60.539062 106.664062 60.925781 107.988281 61.136719 108.585938 C 61.335938 109.175781 61.476562 109.6875 61.449219 109.710938 C 61.300781 109.875 59.863281 105.273438 59.5 103.476562 C 59.1875 101.898438 59.199219 101.324219 59.511719 102.75 C 59.648438 103.335938 59.988281 104.636719 60.261719 105.648438 Z M 60.261719 105.648438 "/>
<path style=" stroke:none;fill-rule:nonzero;fill:rgb(0%,0%,0%);fill-opacity:1;" d="M 37.0625 32.125 C 37.101562 32.1875 37.164062 32.25 37.199219 32.25 C 37.226562 32.25 37.25 32.1875 37.25 32.125 C 37.25 32.050781 37.1875 32 37.113281 32 C 37.050781 32 37.023438 32.050781 37.0625 32.125 Z M 37.0625 32.125 "/>
<path style=" stroke:none;fill-rule:nonzero;fill:rgb(0%,0%,0%);fill-opacity:1;" d="M 67 20.875 C 67 20.9375 67.0625 21 67.125 21 C 67.199219 21 67.25 20.9375 67.25 20.875 C 67.25 20.800781 67.199219 20.75 67.125 20.75 C 67.0625 20.75 67 20.800781 67 20.875 Z M 67 20.875 "/>
<path style=" stroke:none;fill-rule:nonzero;fill:rgb(0%,0%,0%);fill-opacity:1;" d="M 59.0625 21.0625 C 53.675781 21.6875 47.613281 23.738281 42.789062 26.574219 C 41.5 27.324219 38.4375 29.425781 38.300781 29.648438 C 38.261719 29.710938 38.273438 29.824219 38.335938 29.886719 C 38.398438 29.949219 39.085938 29.523438 39.976562 28.875 C 46.226562 24.324219 52.460938 21.949219 60.023438 21.226562 C 60.898438 21.136719 61.625 21.023438 61.625 20.976562 C 61.625 20.835938 60.710938 20.875 59.0625 21.0625 Z M 59.0625 21.0625 "/>
<path style=" stroke:none;fill-rule:nonzero;fill:rgb(0%,0%,0%);fill-opacity:1;" d="M 68.273438 21.011719 C 68.300781 21.085938 68.375 21.136719 68.4375 21.136719 C 68.5 21.136719 68.574219 21.085938 68.601562 21.011719 C 68.625 20.9375 68.550781 20.875 68.4375 20.875 C 68.324219 20.875 68.25 20.9375 68.273438 21.011719 Z M 68.273438 21.011719 "/>
<path style=" stroke:none;fill-rule:nonzero;fill:rgb(0%,0%,0%);fill-opacity:1;" d="M 69.625 21.175781 C 69.625 21.289062 69.6875 21.375 69.75 21.375 C 69.824219 21.375 69.875 21.324219 69.875 21.261719 C 69.875 21.1875 69.824219 21.101562 69.75 21.0625 C 69.6875 21.023438 69.625 21.074219 69.625 21.175781 Z M 69.625 21.175781 "/>
<path style=" stroke:none;fill-rule:nonzero;fill:rgb(0%,0%,0%);fill-opacity:1;" d="M 70.75 21.375 C 70.75 21.4375 70.835938 21.5 70.949219 21.5 C 71.050781 21.5 71.101562 21.4375 71.0625 21.375 C 71.023438 21.300781 70.9375 21.25 70.863281 21.25 C 70.800781 21.25 70.75 21.300781 70.75 21.375 Z M 70.75 21.375 "/>
<path style=" stroke:none;fill-rule:nonzero;fill:rgb(0%,0%,0%);fill-opacity:1;" d="M 72 21.625 C 72 21.6875 72.0625 21.75 72.125 21.75 C 72.199219 21.75 72.25 21.6875 72.25 21.625 C 72.25 21.550781 72.199219 21.5 72.125 21.5 C 72.0625 21.5 72 21.550781 72 21.625 Z M 72 21.625 "/>
<path style=" stroke:none;fill-rule:nonzero;fill:rgb(0%,0%,0%);fill-opacity:1;" d="M 73.148438 21.886719 C 73.175781 21.960938 73.25 22.011719 73.3125 22.011719 C 73.375 22.011719 73.449219 21.960938 73.476562 21.886719 C 73.5 21.8125 73.425781 21.75 73.3125 21.75 C 73.199219 21.75 73.125 21.8125 73.148438 21.886719 Z M 73.148438 21.886719 "/>
<path style=" stroke:none;fill-rule:nonzero;fill:rgb(0%,0%,0%);fill-opacity:1;" d="M 74.273438 22.113281 C 74.300781 22.199219 74.363281 22.261719 74.414062 22.261719 C 74.5625 22.25 74.523438 22.074219 74.375 22.011719 C 74.289062 21.988281 74.238281 22.039062 74.273438 22.113281 Z M 74.273438 22.113281 "/>
<path style=" stroke:none;fill-rule:nonzero;fill:rgb(0%,0%,0%);fill-opacity:1;" d="M 75.375 22.5 C 75.375 22.5625 75.460938 22.625 75.5625 22.625 C 75.664062 22.625 75.75 22.5625 75.75 22.5 C 75.75 22.425781 75.664062 22.375 75.5625 22.375 C 75.460938 22.375 75.375 22.425781 75.375 22.5 Z M 75.375 22.5 "/>
<path style=" stroke:none;fill-rule:nonzero;fill:rgb(0%,0%,0%);fill-opacity:1;" d="M 76.625 22.875 C 76.625 22.9375 76.6875 23 76.75 23 C 76.824219 23 76.875 22.9375 76.875 22.875 C 76.875 22.800781 76.824219 22.75 76.75 22.75 C 76.6875 22.75 76.625 22.800781 76.625 22.875 Z M 76.625 22.875 "/>
<path style=" stroke:none;fill-rule:nonzero;fill:rgb(0%,0%,0%);fill-opacity:1;" d="M 68.0625 23.25 C 73.511719 23.949219 77.8125 25.210938 82.113281 27.363281 C 82.800781 27.710938 83.375 27.976562 83.375 27.9375 C 83.375 27.851562 80.773438 26.5625 79.539062 26.050781 C 76.039062 24.585938 71.726562 23.488281 68.136719 23.125 C 66.148438 22.925781 66.113281 23 68.0625 23.25 Z M 68.0625 23.25 "/>
<path style=" stroke:none;fill-rule:nonzero;fill:rgb(0%,0%,0%);fill-opacity:1;" d="M 63.351562 23.4375 C 63.238281 23.675781 63.25 23.800781 63.425781 24.0625 C 63.773438 24.601562 64.625 24.398438 64.625 23.773438 C 64.625 23.3125 64.414062 23.125 63.914062 23.125 C 63.585938 23.125 63.460938 23.199219 63.351562 23.4375 Z M 63.351562 23.4375 "/>
<path style=" stroke:none;fill-rule:nonzero;fill:rgb(0%,0%,0%);fill-opacity:1;" d="M 77.6875 23.25 C 77.726562 23.3125 77.8125 23.375 77.886719 23.375 C 77.949219 23.375 78 23.3125 78 23.25 C 78 23.175781 77.914062 23.125 77.800781 23.125 C 77.699219 23.125 77.648438 23.175781 77.6875 23.25 Z M 77.6875 23.25 "/>
<path style=" stroke:none;fill-rule:nonzero;fill:rgb(0%,0%,0%);fill-opacity:1;" d="M 99.1875 27.9375 C 94.773438 32.449219 94.574219 32.625 94.125 32.625 C 93.574219 32.625 93.25 32.925781 93.25 33.449219 C 93.25 33.9375 93.449219 34.125 93.960938 34.125 C 94.488281 34.125 94.875 33.75 94.875 33.238281 C 94.875 32.914062 95.414062 32.289062 98.789062 28.710938 C 103.351562 23.875 103.925781 23.25 103.851562 23.25 C 103.8125 23.25 101.726562 25.363281 99.1875 27.9375 Z M 99.1875 27.9375 "/>
<path style=" stroke:none;fill-rule:nonzero;fill:rgb(0%,0%,0%);fill-opacity:1;" d="M 78.875 23.75 C 78.875 23.8125 78.960938 23.875 79.0625 23.875 C 79.164062 23.875 79.25 23.8125 79.25 23.75 C 79.25 23.675781 79.164062 23.625 79.0625 23.625 C 78.960938 23.625 78.875 23.675781 78.875 23.75 Z M 78.875 23.75 "/>
<path style=" stroke:none;fill-rule:nonzero;fill:rgb(0%,0%,0%);fill-opacity:1;" d="M 60.5625 24.085938 C 54.113281 24.601562 47.625 26.898438 42.636719 30.414062 C 41.300781 31.363281 40.699219 31.863281 40.789062 31.949219 C 40.824219 32 41.1875 31.773438 41.601562 31.460938 C 43.925781 29.664062 47.625 27.675781 50.75 26.523438 C 53.550781 25.5 57.164062 24.675781 59.9375 24.4375 C 61.550781 24.300781 62 24.226562 61.925781 24.113281 C 61.863281 24 61.613281 24 60.5625 24.085938 Z M 60.5625 24.085938 "/>
<path style=" stroke:none;fill-rule:nonzero;fill:rgb(0%,0%,0%);fill-opacity:1;" d="M 80 24.25 C 80 24.3125 80.0625 24.375 80.125 24.375 C 80.199219 24.375 80.25 24.3125 80.25 24.25 C 80.25 24.175781 80.199219 24.125 80.125 24.125 C 80.0625 24.125 80 24.175781 80 24.25 Z M 80 24.25 "/>
<path style=" stroke:none;fill-rule:nonzero;fill:rgb(0%,0%,0%);fill-opacity:1;" d="M 67.414062 24.710938 C 67.523438 24.738281 67.699219 24.738281 67.789062 24.710938 C 67.863281 24.675781 67.773438 24.648438 67.5625 24.648438 C 67.363281 24.648438 67.289062 24.675781 67.414062 24.710938 Z M 67.414062 24.710938 "/>
<path style=" stroke:none;fill-rule:nonzero;fill:rgb(0%,0%,0%);fill-opacity:1;" d="M 81.125 24.75 C 81.125 24.8125 81.1875 24.875 81.25 24.875 C 81.324219 24.875 81.375 24.8125 81.375 24.75 C 81.375 24.675781 81.324219 24.625 81.25 24.625 C 81.1875 24.625 81.125 24.675781 81.125 24.75 Z M 81.125 24.75 "/>
<path style=" stroke:none;fill-rule:nonzero;fill:rgb(0%,0%,0%);fill-opacity:1;" d="M 68.476562 24.835938 C 68.625 24.863281 68.851562 24.863281 68.976562 24.835938 C 69.085938 24.800781 68.960938 24.773438 68.6875 24.789062 C 68.414062 24.789062 68.3125 24.8125 68.476562 24.835938 Z M 68.476562 24.835938 "/>
<path style=" stroke:none;fill-rule:nonzero;fill:rgb(0%,0%,0%);fill-opacity:1;" d="M 70.0625 25.074219 C 70.550781 25.164062 71.050781 25.238281 71.1875 25.226562 C 71.324219 25.226562 71.074219 25.148438 70.625 25.050781 C 70.175781 24.960938 69.675781 24.886719 69.5 24.898438 C 69.324219 24.898438 69.585938 24.976562 70.0625 25.074219 Z M 70.0625 25.074219 "/>
<path style=" stroke:none;fill-rule:nonzero;fill:rgb(0%,0%,0%);fill-opacity:1;" d="M 82.199219 25.238281 C 82.148438 25.300781 82.175781 25.386719 82.238281 25.425781 C 82.300781 25.476562 82.386719 25.449219 82.425781 25.386719 C 82.476562 25.324219 82.449219 25.238281 82.386719 25.199219 C 82.324219 25.148438 82.238281 25.175781 82.199219 25.238281 Z M 82.199219 25.238281 "/>
<path style=" stroke:none;fill-rule:nonzero;fill:rgb(0%,0%,0%);fill-opacity:1;" d="M 71.601562 25.335938 C 71.675781 25.363281 71.824219 25.363281 71.914062 25.335938 C 71.988281 25.300781 71.925781 25.273438 71.75 25.273438 C 71.574219 25.273438 71.511719 25.300781 71.601562 25.335938 Z M 71.601562 25.335938 "/>
<path style=" stroke:none;fill-rule:nonzero;fill:rgb(0%,0%,0%);fill-opacity:1;" d="M 72.9375 25.636719 C 73.425781 25.761719 73.863281 25.851562 73.9375 25.835938 C 74.074219 25.789062 72.460938 25.375 72.226562 25.386719 C 72.136719 25.386719 72.460938 25.5 72.9375 25.636719 Z M 72.9375 25.636719 "/>
<path style=" stroke:none;fill-rule:nonzero;fill:rgb(0%,0%,0%);fill-opacity:1;" d="M 83.25 25.75 C 83.25 25.8125 83.3125 25.875 83.386719 25.875 C 83.449219 25.875 83.476562 25.8125 83.4375 25.75 C 83.398438 25.675781 83.335938 25.625 83.300781 25.625 C 83.273438 25.625 83.25 25.675781 83.25 25.75 Z M 83.25 25.75 "/>
<path style=" stroke:none;fill-rule:nonzero;fill:rgb(0%,0%,0%);fill-opacity:1;" d="M 74.226562 25.960938 C 74.3125 26 74.425781 25.988281 74.460938 25.949219 C 74.511719 25.914062 74.4375 25.875 74.300781 25.886719 C 74.164062 25.886719 74.125 25.925781 74.226562 25.960938 Z M 74.226562 25.960938 "/>
<path style=" stroke:none;fill-rule:nonzero;fill:rgb(0%,0%,0%);fill-opacity:1;" d="M 76.4375 26.675781 C 78.761719 27.5 80.039062 28.050781 81.875 29.023438 C 84.363281 30.335938 86.800781 31.960938 88.8125 33.625 C 90.023438 34.636719 90.324219 34.8125 89.75 34.1875 C 89.023438 33.425781 86.023438 31.226562 84.226562 30.148438 C 82.351562 29.039062 81.289062 28.476562 79.574219 27.726562 C 78.414062 27.210938 74.949219 26 74.699219 26.011719 C 74.625 26.011719 75.414062 26.3125 76.4375 26.675781 Z M 76.4375 26.675781 "/>
<path style=" stroke:none;fill-rule:nonzero;fill:rgb(0%,0%,0%);fill-opacity:1;" d="M 84.25 26.375 C 84.25 26.4375 84.3125 26.5 84.375 26.5 C 84.449219 26.5 84.5 26.4375 84.5 26.375 C 84.5 26.300781 84.449219 26.25 84.375 26.25 C 84.3125 26.25 84.25 26.300781 84.25 26.375 Z M 84.25 26.375 "/>
<path style=" stroke:none;fill-rule:nonzero;fill:rgb(0%,0%,0%);fill-opacity:1;" d="M 85.375 27 C 85.375 27.0625 85.4375 27.125 85.5 27.125 C 85.574219 27.125 85.625 27.0625 85.625 27 C 85.625 26.925781 85.574219 26.875 85.5 26.875 C 85.4375 26.875 85.375 26.925781 85.375 27 Z M 85.375 27 "/>
<path style=" stroke:none;fill-rule:nonzero;fill:rgb(0%,0%,0%);fill-opacity:1;" d="M 86.3125 27.625 C 86.351562 27.6875 86.449219 27.75 86.511719 27.75 C 86.585938 27.75 86.601562 27.6875 86.5625 27.625 C 86.523438 27.550781 86.425781 27.5 86.363281 27.5 C 86.289062 27.5 86.273438 27.550781 86.3125 27.625 Z M 86.3125 27.625 "/>
<path style=" stroke:none;fill-rule:nonzero;fill:rgb(0%,0%,0%);fill-opacity:1;" d="M 87.375 28.300781 C 87.375 28.414062 87.4375 28.5 87.5 28.5 C 87.574219 28.5 87.625 28.449219 87.625 28.386719 C 87.625 28.3125 87.574219 28.226562 87.5 28.1875 C 87.4375 28.148438 87.375 28.199219 87.375 28.300781 Z M 87.375 28.300781 "/>
<path style=" stroke:none;fill-rule:nonzero;fill:rgb(0%,0%,0%);fill-opacity:1;" d="M 88.25 29 C 88.25 29.0625 88.335938 29.125 88.4375 29.125 C 88.539062 29.125 88.625 29.0625 88.625 29 C 88.625 28.925781 88.539062 28.875 88.4375 28.875 C 88.335938 28.875 88.25 28.925781 88.25 29 Z M 88.25 29 "/>
<path style=" stroke:none;fill-rule:nonzero;fill:rgb(0%,0%,0%);fill-opacity:1;" d="M 89.148438 29.648438 C 89.210938 29.835938 89.5 29.875 89.511719 29.6875 C 89.511719 29.613281 89.425781 29.539062 89.300781 29.523438 C 89.175781 29.488281 89.113281 29.539062 89.148438 29.648438 Z M 89.148438 29.648438 "/>
<path style=" stroke:none;fill-rule:nonzero;fill:rgb(0%,0%,0%);fill-opacity:1;" d="M 90.074219 30.226562 C 90.039062 30.300781 90.0625 30.398438 90.136719 30.4375 C 90.324219 30.5625 90.449219 30.398438 90.289062 30.238281 C 90.199219 30.148438 90.125 30.148438 90.074219 30.226562 Z M 90.074219 30.226562 "/>
<path style=" stroke:none;fill-rule:nonzero;fill:rgb(0%,0%,0%);fill-opacity:1;" d="M 90.898438 31.023438 C 90.976562 31.25 91.25 31.289062 91.25 31.074219 C 91.25 30.960938 91.164062 30.875 91.050781 30.875 C 90.9375 30.875 90.875 30.9375 90.898438 31.023438 Z M 90.898438 31.023438 "/>
<path style=" stroke:none;fill-rule:nonzero;fill:rgb(0%,0%,0%);fill-opacity:1;" d="M 91.710938 31.574219 C 91.613281 31.675781 91.726562 31.875 91.886719 31.875 C 91.949219 31.875 92 31.789062 92 31.6875 C 92 31.5 91.851562 31.4375 91.710938 31.574219 Z M 91.710938 31.574219 "/>
<path style=" stroke:none;fill-rule:nonzero;fill:rgb(0%,0%,0%);fill-opacity:1;" d="M 63.625 32.175781 C 63.550781 32.273438 63.5 32.488281 63.523438 32.648438 C 63.5625 32.898438 63.636719 32.9375 64.0625 32.9375 C 64.488281 32.9375 64.5625 32.898438 64.601562 32.648438 C 64.648438 32.273438 64.425781 32 64.0625 32 C 63.914062 32 63.710938 32.085938 63.625 32.175781 Z M 63.625 32.175781 "/>
<path style=" stroke:none;fill-rule:nonzero;fill:rgb(0%,0%,0%);fill-opacity:1;" d="M 92.4375 32.375 C 92.398438 32.449219 92.449219 32.539062 92.5625 32.574219 C 92.800781 32.675781 92.9375 32.574219 92.8125 32.386719 C 92.710938 32.210938 92.539062 32.210938 92.4375 32.375 Z M 92.4375 32.375 "/>
<path style=" stroke:none;fill-rule:nonzero;fill:rgb(0%,0%,0%);fill-opacity:1;" d="M 94.699219 34.726562 C 94.664062 34.800781 94.6875 34.898438 94.761719 34.9375 C 94.949219 35.0625 95.074219 34.898438 94.914062 34.738281 C 94.824219 34.648438 94.75 34.648438 94.699219 34.726562 Z M 94.699219 34.726562 "/>
<path style=" stroke:none;fill-rule:nonzero;fill:rgb(0%,0%,0%);fill-opacity:1;" d="M 91.238281 35.636719 C 91.011719 35.863281 91 35.925781 91.164062 36.164062 C 91.398438 36.523438 91.875 36.585938 92.085938 36.300781 C 92.300781 36 92.300781 35.925781 92 35.625 C 91.6875 35.3125 91.5625 35.3125 91.238281 35.636719 Z M 91.238281 35.636719 "/>
<path style=" stroke:none;fill-rule:nonzero;fill:rgb(0%,0%,0%);fill-opacity:1;" d="M 95.375 35.625 C 95.375 35.6875 95.460938 35.75 95.574219 35.75 C 95.675781 35.75 95.726562 35.6875 95.6875 35.625 C 95.648438 35.550781 95.5625 35.5 95.488281 35.5 C 95.425781 35.5 95.375 35.550781 95.375 35.625 Z M 95.375 35.625 "/>
<path style=" stroke:none;fill-rule:nonzero;fill:rgb(0%,0%,0%);fill-opacity:1;" d="M 96.023438 36.386719 C 96.050781 36.460938 96.125 36.511719 96.1875 36.511719 C 96.25 36.511719 96.324219 36.460938 96.351562 36.386719 C 96.375 36.3125 96.300781 36.25 96.1875 36.25 C 96.074219 36.25 96 36.3125 96.023438 36.386719 Z M 96.023438 36.386719 "/>
<path style=" stroke:none;fill-rule:nonzero;fill:rgb(0%,0%,0%);fill-opacity:1;" d="M 92.238281 36.6875 C 92.3125 36.824219 92.761719 37.386719 93.261719 37.9375 C 98.5625 43.863281 101.875 51.523438 102.75 59.8125 L 102.863281 60.9375 L 102.8125 59.585938 C 102.550781 53.273438 99.5625 45.449219 95.300781 39.9375 C 94.425781 38.789062 92.011719 36.238281 92.238281 36.6875 Z M 92.238281 36.6875 "/>
<path style=" stroke:none;fill-rule:nonzero;fill:rgb(0%,0%,0%);fill-opacity:1;" d="M 96.75 37.25 C 96.75 37.3125 96.8125 37.375 96.875 37.375 C 96.949219 37.375 97 37.3125 97 37.25 C 97 37.175781 96.949219 37.125 96.875 37.125 C 96.8125 37.125 96.75 37.175781 96.75 37.25 Z M 96.75 37.25 "/>
<path style=" stroke:none;fill-rule:nonzero;fill:rgb(0%,0%,0%);fill-opacity:1;" d="M 102.800781 37.824219 C 102.574219 38 102.574219 38.011719 102.851562 37.875 C 103 37.800781 103.125 37.710938 103.125 37.6875 C 103.125 37.585938 103.0625 37.613281 102.800781 37.824219 Z M 102.800781 37.824219 "/>
<path style=" stroke:none;fill-rule:nonzero;fill:rgb(0%,0%,0%);fill-opacity:1;" d="M 97.273438 38.023438 C 97.351562 38.25 97.625 38.289062 97.625 38.074219 C 97.625 37.960938 97.539062 37.875 97.425781 37.875 C 97.3125 37.875 97.25 37.9375 97.273438 38.023438 Z M 97.273438 38.023438 "/>
<path style=" stroke:none;fill-rule:nonzero;fill:rgb(0%,0%,0%);fill-opacity:1;" d="M 101.925781 38.324219 C 101.699219 38.5 101.699219 38.511719 101.976562 38.375 C 102.125 38.300781 102.25 38.210938 102.25 38.1875 C 102.25 38.085938 102.1875 38.113281 101.925781 38.324219 Z M 101.925781 38.324219 "/>
<path style=" stroke:none;fill-rule:nonzero;fill:rgb(0%,0%,0%);fill-opacity:1;" d="M 101.226562 38.699219 C 100.75 38.949219 100.773438 39.050781 101.25 38.8125 C 101.460938 38.699219 101.625 38.585938 101.625 38.5625 C 101.625 38.476562 101.613281 38.488281 101.226562 38.699219 Z M 101.226562 38.699219 "/>
<path style=" stroke:none;fill-rule:nonzero;fill:rgb(0%,0%,0%);fill-opacity:1;" d="M 98 38.875 C 98 38.9375 98.0625 39 98.136719 39 C 98.199219 39 98.226562 38.9375 98.1875 38.875 C 98.148438 38.800781 98.085938 38.75 98.050781 38.75 C 98.023438 38.75 98 38.800781 98 38.875 Z M 98 38.875 "/>
<path style=" stroke:none;fill-rule:nonzero;fill:rgb(0%,0%,0%);fill-opacity:1;" d="M 100.425781 39.199219 C 100.199219 39.375 100.199219 39.386719 100.476562 39.25 C 100.625 39.175781 100.75 39.085938 100.75 39.0625 C 100.75 38.960938 100.6875 38.988281 100.425781 39.199219 Z M 100.425781 39.199219 "/>
<path style=" stroke:none;fill-rule:nonzero;fill:rgb(0%,0%,0%);fill-opacity:1;" d="M 98.5625 39.875 C 98.601562 39.9375 98.6875 40 98.761719 40 C 98.824219 40 98.875 39.9375 98.875 39.875 C 98.875 39.800781 98.789062 39.75 98.675781 39.75 C 98.574219 39.75 98.523438 39.800781 98.5625 39.875 Z M 98.5625 39.875 "/>
<path style=" stroke:none;fill-rule:nonzero;fill:rgb(0%,0%,0%);fill-opacity:1;" d="M 99.1875 40.75 C 99.226562 40.8125 99.289062 40.875 99.324219 40.875 C 99.351562 40.875 99.375 40.8125 99.375 40.75 C 99.375 40.675781 99.3125 40.625 99.238281 40.625 C 99.175781 40.625 99.148438 40.675781 99.1875 40.75 Z M 99.1875 40.75 "/>
<path style=" stroke:none;fill-rule:nonzero;fill:rgb(0%,0%,0%);fill-opacity:1;" d="M 99.75 41.75 C 99.75 41.8125 99.8125 41.875 99.875 41.875 C 99.949219 41.875 100 41.8125 100 41.75 C 100 41.675781 99.949219 41.625 99.875 41.625 C 99.8125 41.625 99.75 41.675781 99.75 41.75 Z M 99.75 41.75 "/>
<path style=" stroke:none;fill-rule:nonzero;fill:rgb(0%,0%,0%);fill-opacity:1;" d="M 53.375 42.664062 C 53.375 42.699219 53.699219 42.925781 54.101562 43.164062 C 55.210938 43.835938 56.5 44.523438 56.5 44.460938 C 56.5 44.4375 55.976562 44.113281 55.351562 43.75 C 54.710938 43.386719 54 42.976562 53.789062 42.851562 C 53.5625 42.710938 53.375 42.636719 53.375 42.664062 Z M 53.375 42.664062 "/>
<path style=" stroke:none;fill-rule:nonzero;fill:rgb(0%,0%,0%);fill-opacity:1;" d="M 100.3125 42.75 C 100.363281 42.824219 100.449219 42.851562 100.511719 42.8125 C 100.6875 42.699219 100.648438 42.625 100.425781 42.625 C 100.324219 42.625 100.273438 42.6875 100.3125 42.75 Z M 100.3125 42.75 "/>
<path style=" stroke:none;fill-rule:nonzero;fill:rgb(0%,0%,0%);fill-opacity:1;" d="M 74 43.625 C 74.136719 43.824219 74.550781 44.238281 74.914062 44.550781 C 75.523438 45.0625 75.675781 45.136719 76.6875 45.3125 C 77.289062 45.414062 77.8125 45.476562 77.835938 45.449219 C 77.863281 45.425781 77.136719 45.023438 76.226562 44.5625 C 75.3125 44.101562 74.414062 43.613281 74.226562 43.488281 C 73.761719 43.148438 73.6875 43.1875 74 43.625 Z M 74 43.625 "/>
<path style=" stroke:none;fill-rule:nonzero;fill:rgb(0%,0%,0%);fill-opacity:1;" d="M 100.875 43.6875 C 100.875 43.789062 100.960938 43.875 101.074219 43.875 C 101.25 43.875 101.25 43.835938 101.125 43.6875 C 101.039062 43.585938 100.949219 43.5 100.925781 43.5 C 100.898438 43.5 100.875 43.585938 100.875 43.6875 Z M 100.875 43.6875 "/>
<path style=" stroke:none;fill-rule:nonzero;fill:rgb(0%,0%,0%);fill-opacity:1;" d="M 56.8125 44.6875 C 57.175781 44.988281 57.789062 45.300781 57.6875 45.136719 C 57.648438 45.0625 57.375 44.886719 57.085938 44.738281 C 56.726562 44.5625 56.636719 44.550781 56.8125 44.6875 Z M 56.8125 44.6875 "/>
<path style=" stroke:none;fill-rule:nonzero;fill:rgb(0%,0%,0%);fill-opacity:1;" d="M 101.273438 44.648438 C 101.351562 44.875 101.625 44.914062 101.625 44.699219 C 101.625 44.585938 101.539062 44.5 101.425781 44.5 C 101.3125 44.5 101.25 44.5625 101.273438 44.648438 Z M 101.273438 44.648438 "/>
<path style=" stroke:none;fill-rule:nonzero;fill:rgb(0%,0%,0%);fill-opacity:1;" d="M 101.75 45.699219 C 101.75 45.8125 101.8125 45.875 101.898438 45.851562 C 102.125 45.773438 102.164062 45.5 101.949219 45.5 C 101.835938 45.5 101.75 45.585938 101.75 45.699219 Z M 101.75 45.699219 "/>
<path style=" stroke:none;fill-rule:nonzero;fill:rgb(0%,0%,0%);fill-opacity:1;" d="M 102.148438 46.636719 C 102.164062 46.800781 102.25 46.925781 102.3125 46.898438 C 102.5 46.863281 102.460938 46.460938 102.273438 46.398438 C 102.164062 46.363281 102.113281 46.4375 102.148438 46.636719 Z M 102.148438 46.636719 "/>
<path style=" stroke:none;fill-rule:nonzero;fill:rgb(0%,0%,0%);fill-opacity:1;" d="M 102.550781 47.550781 C 102.5 47.664062 102.523438 47.824219 102.613281 47.914062 C 102.710938 48.011719 102.789062 48.011719 102.898438 47.898438 C 103.023438 47.773438 103 47.699219 102.835938 47.539062 C 102.648438 47.351562 102.625 47.351562 102.550781 47.550781 Z M 102.550781 47.550781 "/>
<path style=" stroke:none;fill-rule:nonzero;fill:rgb(0%,0%,0%);fill-opacity:1;" d="M 104.125 47.550781 C 104.125 47.574219 104.289062 47.976562 104.476562 48.449219 C 104.925781 49.550781 105.636719 51.789062 106.113281 53.625 C 106.6875 55.851562 106.988281 57.789062 107.164062 60.136719 C 107.273438 61.675781 107.363281 62.3125 107.476562 62.351562 C 107.585938 62.386719 107.613281 62.3125 107.574219 62.101562 C 107.539062 61.949219 107.488281 61.199219 107.4375 60.449219 C 107.3125 58.226562 106.664062 54.773438 105.851562 52 C 105.324219 50.210938 104.125 47.113281 104.125 47.550781 Z M 104.125 47.550781 "/>
<path style=" stroke:none;fill-rule:nonzero;fill:rgb(0%,0%,0%);fill-opacity:1;" d="M 102.9375 48.613281 C 102.835938 48.800781 102.976562 49 103.199219 49 C 103.3125 49 103.375 48.914062 103.351562 48.789062 C 103.300781 48.539062 103.050781 48.4375 102.9375 48.613281 Z M 102.9375 48.613281 "/>
<path style=" stroke:none;fill-rule:nonzero;fill:rgb(0%,0%,0%);fill-opacity:1;" d="M 103.3125 49.738281 C 103.210938 49.925781 103.351562 50.125 103.574219 50.125 C 103.6875 50.125 103.75 50.039062 103.726562 49.914062 C 103.675781 49.664062 103.425781 49.5625 103.3125 49.738281 Z M 103.3125 49.738281 "/>
<path style=" stroke:none;fill-rule:nonzero;fill:rgb(0%,0%,0%);fill-opacity:1;" d="M 21.914062 50.875 C 21.5 52.039062 20.8125 54.851562 20.5625 56.3125 C 20.101562 59.0625 19.875 62 20.125 62 C 20.261719 62 20.3125 61.648438 20.488281 59.6875 C 20.710938 57.1875 21.226562 54.449219 21.988281 51.710938 C 22.136719 51.175781 22.25 50.585938 22.226562 50.398438 C 22.199219 50.136719 22.136719 50.226562 21.914062 50.875 Z M 21.914062 50.875 "/>
<path style=" stroke:none;fill-rule:nonzero;fill:rgb(0%,0%,0%);fill-opacity:1;" d="M 103.6875 50.863281 C 103.585938 51.050781 103.726562 51.25 103.949219 51.25 C 104.0625 51.25 104.125 51.164062 104.101562 51.039062 C 104.050781 50.789062 103.800781 50.6875 103.6875 50.863281 Z M 103.6875 50.863281 "/>
<path style=" stroke:none;fill-rule:nonzero;fill:rgb(0%,0%,0%);fill-opacity:1;" d="M 104.023438 52.085938 C 104.085938 52.398438 104.375 52.4375 104.375 52.136719 C 104.375 51.988281 104.300781 51.875 104.175781 51.875 C 104.0625 51.875 104 51.960938 104.023438 52.085938 Z M 104.023438 52.085938 "/>
<path style=" stroke:none;fill-rule:nonzero;fill:rgb(0%,0%,0%);fill-opacity:1;" d="M 104.289062 53.074219 C 104.1875 53.335938 104.449219 53.601562 104.636719 53.414062 C 104.800781 53.25 104.699219 52.875 104.5 52.875 C 104.425781 52.875 104.335938 52.960938 104.289062 53.074219 Z M 104.289062 53.074219 "/>
<path style=" stroke:none;fill-rule:nonzero;fill:rgb(0%,0%,0%);fill-opacity:1;" d="M 25.460938 54.074219 C 24.898438 56.039062 24.613281 58.039062 24.5625 60.25 L 24.511719 62.4375 L 24.6875 60.5 C 24.875 58.425781 25.074219 57.0625 25.5 55.0625 C 25.800781 53.601562 25.789062 52.960938 25.460938 54.074219 Z M 25.460938 54.074219 "/>
<path style=" stroke:none;fill-rule:nonzero;fill:rgb(0%,0%,0%);fill-opacity:1;" d="M 23.3125 53.613281 C 23.273438 53.6875 23.273438 53.960938 23.324219 54.226562 C 23.386719 54.664062 23.363281 54.738281 23.136719 54.8125 C 22.851562 54.898438 22.773438 55.351562 23.023438 55.601562 C 23.136719 55.710938 23.101562 55.8125 22.875 56.0625 C 22.613281 56.335938 22.601562 56.398438 22.75 56.6875 C 22.886719 56.949219 22.886719 57.023438 22.699219 57.238281 C 22.539062 57.414062 22.511719 57.585938 22.574219 57.976562 C 22.636719 58.386719 22.613281 58.511719 22.449219 58.574219 C 22.210938 58.664062 22.1875 59.199219 22.414062 59.289062 C 22.523438 59.324219 22.5625 59.488281 22.523438 59.738281 C 22.5 59.960938 22.523438 60.125 22.601562 60.125 C 22.675781 60.125 22.761719 59.800781 22.8125 59.398438 C 22.851562 59.011719 22.9375 58.375 23 58 C 23.0625 57.625 23.199219 56.75 23.3125 56.0625 C 23.425781 55.375 23.5625 54.613281 23.636719 54.363281 C 23.699219 54.113281 23.75 53.8125 23.75 53.699219 C 23.75 53.488281 23.4375 53.425781 23.3125 53.613281 Z M 23.3125 53.613281 "/>
<path style=" stroke:none;fill-rule:nonzero;fill:rgb(0%,0%,0%);fill-opacity:1;" d="M 104.523438 54.273438 C 104.550781 54.425781 104.648438 54.5625 104.75 54.5625 C 105.023438 54.5625 104.988281 54.074219 104.710938 54.023438 C 104.523438 53.988281 104.488281 54.039062 104.523438 54.273438 Z M 104.523438 54.273438 "/>
<path style=" stroke:none;fill-rule:nonzero;fill:rgb(0%,0%,0%);fill-opacity:1;" d="M 104.789062 55.324219 C 104.6875 55.585938 104.949219 55.851562 105.136719 55.664062 C 105.300781 55.5 105.199219 55.125 105 55.125 C 104.925781 55.125 104.835938 55.210938 104.789062 55.324219 Z M 104.789062 55.324219 "/>
<path style=" stroke:none;fill-rule:nonzero;fill:rgb(0%,0%,0%);fill-opacity:1;" d="M 104.925781 56.4375 C 104.835938 56.664062 104.960938 56.875 105.1875 56.875 C 105.449219 56.875 105.539062 56.636719 105.375 56.4375 C 105.175781 56.199219 105.011719 56.199219 104.925781 56.4375 Z M 104.925781 56.4375 "/>
<path style=" stroke:none;fill-rule:nonzero;fill:rgb(0%,0%,0%);fill-opacity:1;" d="M 105.148438 57.960938 C 105.175781 58.175781 105.261719 58.3125 105.375 58.3125 C 105.488281 58.3125 105.574219 58.175781 105.601562 57.960938 C 105.636719 57.6875 105.585938 57.625 105.375 57.625 C 105.164062 57.625 105.113281 57.6875 105.148438 57.960938 Z M 105.148438 57.960938 "/>
<path style=" stroke:none;fill-rule:nonzero;fill:rgb(0%,0%,0%);fill-opacity:1;" d="M 105.273438 59.210938 C 105.300781 59.460938 105.386719 59.5625 105.5625 59.5625 C 105.738281 59.5625 105.824219 59.460938 105.851562 59.210938 C 105.886719 58.925781 105.851562 58.875 105.5625 58.875 C 105.273438 58.875 105.238281 58.925781 105.273438 59.210938 Z M 105.273438 59.210938 "/>
<path style=" stroke:none;fill-rule:nonzero;fill:rgb(0%,0%,0%);fill-opacity:1;" d="M 22.085938 60.710938 C 22.039062 60.75 22 60.898438 22 61.023438 C 22 61.1875 22.101562 61.25 22.363281 61.25 C 22.773438 61.25 22.914062 61.113281 22.800781 60.824219 C 22.726562 60.625 22.238281 60.550781 22.085938 60.710938 Z M 22.085938 60.710938 "/>
<path style=" stroke:none;fill-rule:nonzero;fill:rgb(0%,0%,0%);fill-opacity:1;" d="M 105.175781 60.886719 C 105.050781 61.101562 105.3125 61.273438 105.699219 61.226562 C 105.925781 61.199219 106.074219 61.101562 106.101562 60.960938 C 106.136719 60.800781 106.050781 60.75 105.699219 60.75 C 105.460938 60.75 105.226562 60.8125 105.175781 60.886719 Z M 105.175781 60.886719 "/>
<path style=" stroke:none;fill-rule:nonzero;fill:rgb(0%,0%,0%);fill-opacity:1;" d="M 102.886719 61.699219 C 102.886719 61.835938 102.925781 61.875 102.960938 61.773438 C 103 61.6875 102.988281 61.574219 102.949219 61.539062 C 102.914062 61.488281 102.875 61.5625 102.886719 61.699219 Z M 102.886719 61.699219 "/>
<path style=" stroke:none;fill-rule:nonzero;fill:rgb(0%,0%,0%);fill-opacity:1;" d="M 16.710938 63.710938 L 16.613281 64.375 L 15.960938 64.386719 C 15.601562 64.386719 15.039062 64.4375 14.6875 64.5 C 14.125 64.585938 14.164062 64.585938 15.1875 64.613281 C 15.8125 64.625 16.375 64.675781 16.449219 64.726562 C 16.523438 64.773438 16.636719 65.0625 16.6875 65.363281 C 16.800781 66 17 65.835938 17 65.085938 L 17 64.625 L 18.664062 64.613281 C 20.574219 64.585938 20.523438 64.550781 18.488281 64.4375 L 17.039062 64.351562 L 16.914062 63.710938 L 16.800781 63.0625 Z M 16.710938 63.710938 "/>
<path style=" stroke:none;fill-rule:nonzero;fill:rgb(0%,0%,0%);fill-opacity:1;" d="M 110.761719 63.5625 C 110.738281 64.375 110.675781 64.414062 109.164062 64.5 L 107.8125 64.585938 L 109.210938 64.601562 L 110.613281 64.625 L 110.699219 65.25 C 110.800781 65.976562 110.886719 65.960938 110.988281 65.210938 L 111.0625 64.6875 L 113.5625 64.5625 L 112.761719 64.460938 C 112.324219 64.414062 111.75 64.375 111.488281 64.375 C 111.039062 64.375 111 64.351562 110.988281 64.023438 C 110.976562 63.835938 110.925781 63.550781 110.875 63.375 C 110.789062 63.101562 110.773438 63.125 110.761719 63.5625 Z M 110.761719 63.5625 "/>
<path style=" stroke:none;fill-rule:nonzero;fill:rgb(0%,0%,0%);fill-opacity:1;" d="M 21.875 63.585938 C 21.585938 63.6875 21.125 64.148438 21.125 64.324219 C 21.125 64.414062 20.9375 64.511719 20.726562 64.539062 L 20.3125 64.585938 L 20.6875 64.613281 C 20.976562 64.625 21.101562 64.726562 21.25 65.039062 C 21.648438 65.898438 22.800781 65.914062 23.210938 65.0625 C 23.476562 64.511719 23.335938 64.050781 22.835938 63.75 C 22.4375 63.5 22.210938 63.460938 21.875 63.585938 Z M 21.875 63.585938 "/>
<path style=" stroke:none;fill-rule:nonzero;fill:rgb(0%,0%,0%);fill-opacity:1;" d="M 105.101562 63.800781 C 104.5 64.25 104.648438 65.199219 105.375 65.5 C 105.898438 65.710938 106.363281 65.550781 106.6875 65.039062 C 106.851562 64.773438 107.050781 64.625 107.25 64.613281 C 107.5625 64.601562 107.5625 64.601562 107.210938 64.511719 C 107.011719 64.476562 106.773438 64.273438 106.625 64.023438 C 106.414062 63.675781 106.3125 63.625 105.851562 63.625 C 105.550781 63.625 105.210938 63.699219 105.101562 63.800781 Z M 105.101562 63.800781 "/>
<path style=" stroke:none;fill-rule:nonzero;fill:rgb(0%,0%,0%);fill-opacity:1;" d="M 24.476562 64.136719 C 23.988281 64.414062 24.363281 65.085938 24.925781 64.949219 C 25.335938 64.851562 25.425781 64.550781 25.125 64.25 C 24.835938 63.960938 24.773438 63.949219 24.476562 64.136719 Z M 24.476562 64.136719 "/>
<path style=" stroke:none;fill-rule:nonzero;fill:rgb(0%,0%,0%);fill-opacity:1;" d="M 102.324219 64.199219 C 102.0625 64.449219 102.074219 64.664062 102.351562 64.914062 C 102.664062 65.199219 102.949219 65.175781 103.175781 64.863281 C 103.585938 64.273438 102.824219 63.6875 102.324219 64.199219 Z M 102.324219 64.199219 "/>
<path style=" stroke:none;fill-rule:nonzero;fill:rgb(0%,0%,0%);fill-opacity:1;" d="M 102.5 66.375 C 102.5 66.4375 102.5625 66.5 102.625 66.5 C 102.699219 66.5 102.75 66.4375 102.75 66.375 C 102.75 66.300781 102.699219 66.25 102.625 66.25 C 102.5625 66.25 102.5 66.300781 102.5 66.375 Z M 102.5 66.375 "/>
<path style=" stroke:none;fill-rule:nonzero;fill:rgb(0%,0%,0%);fill-opacity:1;" d="M 20.125 67.210938 C 20.136719 68.050781 20.601562 71.261719 20.9375 72.8125 C 21.5625 75.726562 22.539062 78.585938 23.636719 80.8125 C 24.238281 82.050781 24.210938 81.925781 23.273438 79.5 C 22.488281 77.476562 21.710938 74.851562 21.25 72.625 C 20.914062 70.960938 20.5 68.113281 20.5 67.335938 C 20.5 66.898438 20.449219 66.75 20.3125 66.75 C 20.175781 66.75 20.125 66.886719 20.125 67.210938 Z M 20.125 67.210938 "/>
<path style=" stroke:none;fill-rule:nonzero;fill:rgb(0%,0%,0%);fill-opacity:1;" d="M 107.136719 68.335938 C 106.761719 72.164062 105.835938 75.898438 104.324219 79.800781 C 103.574219 81.726562 103.636719 82.125 104.398438 80.3125 C 105.898438 76.738281 106.824219 73.324219 107.3125 69.585938 C 107.523438 67.9375 107.550781 66.875 107.386719 66.875 C 107.335938 66.875 107.226562 67.539062 107.136719 68.335938 Z M 107.136719 68.335938 "/>
<path style=" stroke:none;fill-rule:nonzero;fill:rgb(0%,0%,0%);fill-opacity:1;" d="M 105.574219 68.238281 C 105.523438 68.300781 105.550781 68.386719 105.613281 68.425781 C 105.675781 68.476562 105.761719 68.449219 105.800781 68.386719 C 105.851562 68.324219 105.824219 68.238281 105.761719 68.199219 C 105.699219 68.148438 105.613281 68.175781 105.574219 68.238281 Z M 105.574219 68.238281 "/>
<path style=" stroke:none;fill-rule:nonzero;fill:rgb(0%,0%,0%);fill-opacity:1;" d="M 102.25 68.449219 C 102.25 68.550781 102.3125 68.601562 102.375 68.5625 C 102.449219 68.523438 102.5 68.4375 102.5 68.363281 C 102.5 68.300781 102.449219 68.25 102.375 68.25 C 102.3125 68.25 102.25 68.335938 102.25 68.449219 Z M 102.25 68.449219 "/>
<path style=" stroke:none;fill-rule:nonzero;fill:rgb(0%,0%,0%);fill-opacity:1;" d="M 105.425781 69.675781 C 105.324219 69.949219 105.460938 70.085938 105.648438 69.898438 C 105.761719 69.789062 105.761719 69.710938 105.648438 69.601562 C 105.539062 69.488281 105.488281 69.511719 105.425781 69.675781 Z M 105.425781 69.675781 "/>
<path style=" stroke:none;fill-rule:nonzero;fill:rgb(0%,0%,0%);fill-opacity:1;" d="M 105.175781 71.175781 C 105.074219 71.449219 105.210938 71.585938 105.398438 71.398438 C 105.511719 71.289062 105.511719 71.210938 105.398438 71.101562 C 105.289062 70.988281 105.238281 71.011719 105.175781 71.175781 Z M 105.175781 71.175781 "/>
<path style=" stroke:none;fill-rule:nonzero;fill:rgb(0%,0%,0%);fill-opacity:1;" d="M 23 72.125 C 23 72.1875 23.0625 72.25 23.125 72.25 C 23.199219 72.25 23.25 72.1875 23.25 72.125 C 23.25 72.050781 23.199219 72 23.125 72 C 23.0625 72 23 72.050781 23 72.125 Z M 23 72.125 "/>
<path style=" stroke:none;fill-rule:nonzero;fill:rgb(0%,0%,0%);fill-opacity:1;" d="M 104.875 72.5625 C 104.875 72.664062 104.960938 72.75 105.0625 72.75 C 105.164062 72.75 105.25 72.664062 105.25 72.5625 C 105.25 72.460938 105.164062 72.375 105.0625 72.375 C 104.960938 72.375 104.875 72.460938 104.875 72.5625 Z M 104.875 72.5625 "/>
<path style=" stroke:none;fill-rule:nonzero;fill:rgb(0%,0%,0%);fill-opacity:1;" d="M 23.25 73.375 C 23.25 73.4375 23.3125 73.5 23.375 73.5 C 23.449219 73.5 23.5 73.4375 23.5 73.375 C 23.5 73.300781 23.449219 73.25 23.375 73.25 C 23.3125 73.25 23.25 73.300781 23.25 73.375 Z M 23.25 73.375 "/>
<path style=" stroke:none;fill-rule:nonzero;fill:rgb(0%,0%,0%);fill-opacity:1;" d="M 104.625 73.75 C 104.625 73.886719 104.710938 74 104.8125 74 C 104.914062 74 105 73.886719 105 73.75 C 105 73.613281 104.914062 73.5 104.8125 73.5 C 104.710938 73.5 104.625 73.613281 104.625 73.75 Z M 104.625 73.75 "/>
<path style=" stroke:none;fill-rule:nonzero;fill:rgb(0%,0%,0%);fill-opacity:1;" d="M 101.125 74.199219 C 101.125 74.300781 101.1875 74.351562 101.25 74.3125 C 101.324219 74.261719 101.351562 74.175781 101.3125 74.113281 C 101.199219 73.9375 101.125 73.976562 101.125 74.199219 Z M 101.125 74.199219 "/>
<path style=" stroke:none;fill-rule:nonzero;fill:rgb(0%,0%,0%);fill-opacity:1;" d="M 23.5 74.550781 C 23.5 74.664062 23.585938 74.75 23.699219 74.75 C 23.8125 74.75 23.875 74.6875 23.851562 74.601562 C 23.773438 74.375 23.5 74.335938 23.5 74.550781 Z M 23.5 74.550781 "/>
<path style=" stroke:none;fill-rule:nonzero;fill:rgb(0%,0%,0%);fill-opacity:1;" d="M 104.289062 74.824219 C 104.1875 75.074219 104.386719 75.273438 104.613281 75.136719 C 104.800781 75.011719 104.710938 74.625 104.5 74.625 C 104.425781 74.625 104.335938 74.710938 104.289062 74.824219 Z M 104.289062 74.824219 "/>
<path style=" stroke:none;fill-rule:nonzero;fill:rgb(0%,0%,0%);fill-opacity:1;" d="M 23.835938 75.710938 C 23.6875 75.851562 23.738281 76 23.9375 76 C 24.039062 76 24.125 75.914062 24.125 75.8125 C 24.125 75.613281 23.976562 75.5625 23.835938 75.710938 Z M 23.835938 75.710938 "/>
<path style=" stroke:none;fill-rule:nonzero;fill:rgb(0%,0%,0%);fill-opacity:1;" d="M 104.023438 76.074219 C 104.074219 76.335938 104.300781 76.363281 104.351562 76.085938 C 104.375 75.960938 104.3125 75.875 104.1875 75.875 C 104.0625 75.875 104 75.949219 104.023438 76.074219 Z M 104.023438 76.074219 "/>
<path style=" stroke:none;fill-rule:nonzero;fill:rgb(0%,0%,0%);fill-opacity:1;" d="M 24.25 77.0625 C 24.25 77.164062 24.335938 77.25 24.4375 77.25 C 24.539062 77.25 24.625 77.164062 24.625 77.0625 C 24.625 76.960938 24.539062 76.875 24.4375 76.875 C 24.335938 76.875 24.25 76.960938 24.25 77.0625 Z M 24.25 77.0625 "/>
<path style=" stroke:none;fill-rule:nonzero;fill:rgb(0%,0%,0%);fill-opacity:1;" d="M 103.625 77.3125 C 103.625 77.414062 103.710938 77.5 103.8125 77.5 C 103.914062 77.5 104 77.414062 104 77.3125 C 104 77.210938 103.914062 77.125 103.8125 77.125 C 103.710938 77.125 103.625 77.210938 103.625 77.3125 Z M 103.625 77.3125 "/>
<path style=" stroke:none;fill-rule:nonzero;fill:rgb(0%,0%,0%);fill-opacity:1;" d="M 24.710938 78.074219 C 24.613281 78.175781 24.726562 78.375 24.886719 78.375 C 24.949219 78.375 25 78.289062 25 78.1875 C 25 78 24.851562 77.9375 24.710938 78.074219 Z M 24.710938 78.074219 "/>
<path style=" stroke:none;fill-rule:nonzero;fill:rgb(0%,0%,0%);fill-opacity:1;" d="M 103.25 78.449219 C 103.25 78.664062 103.523438 78.625 103.601562 78.398438 C 103.625 78.3125 103.5625 78.25 103.449219 78.25 C 103.335938 78.25 103.25 78.335938 103.25 78.449219 Z M 103.25 78.449219 "/>
<path style=" stroke:none;fill-rule:nonzero;fill:rgb(0%,0%,0%);fill-opacity:1;" d="M 25.199219 79.238281 C 25.148438 79.300781 25.175781 79.386719 25.238281 79.425781 C 25.300781 79.476562 25.386719 79.449219 25.425781 79.386719 C 25.476562 79.324219 25.449219 79.238281 25.386719 79.199219 C 25.324219 79.148438 25.238281 79.175781 25.199219 79.238281 Z M 25.199219 79.238281 "/>
<path style=" stroke:none;fill-rule:nonzero;fill:rgb(0%,0%,0%);fill-opacity:1;" d="M 99.125 79.5 C 99.125 79.5625 99.1875 79.625 99.25 79.625 C 99.324219 79.625 99.375 79.5625 99.375 79.5 C 99.375 79.425781 99.324219 79.375 99.25 79.375 C 99.1875 79.375 99.125 79.425781 99.125 79.5 Z M 99.125 79.5 "/>
<path style=" stroke:none;fill-rule:nonzero;fill:rgb(0%,0%,0%);fill-opacity:1;" d="M 102.8125 79.625 C 102.773438 79.6875 102.800781 79.75 102.863281 79.75 C 102.9375 79.75 103 79.6875 103 79.625 C 103 79.550781 102.976562 79.5 102.949219 79.5 C 102.914062 79.5 102.851562 79.550781 102.8125 79.625 Z M 102.8125 79.625 "/>
<path style=" stroke:none;fill-rule:nonzero;fill:rgb(0%,0%,0%);fill-opacity:1;" d="M 98.710938 80.460938 C 98.664062 80.5 98.625 80.601562 98.625 80.675781 C 98.625 80.75 98.6875 80.738281 98.773438 80.648438 C 98.851562 80.574219 98.886719 80.476562 98.863281 80.4375 C 98.824219 80.398438 98.75 80.414062 98.710938 80.460938 Z M 98.710938 80.460938 "/>
<path style=" stroke:none;fill-rule:nonzero;fill:rgb(0%,0%,0%);fill-opacity:1;" d="M 26.5 82.4375 C 26.5 82.539062 26.585938 82.625 26.6875 82.625 C 26.789062 82.625 26.875 82.539062 26.875 82.4375 C 26.875 82.335938 26.789062 82.25 26.6875 82.25 C 26.585938 82.25 26.5 82.335938 26.5 82.4375 Z M 26.5 82.4375 "/>
<path style=" stroke:none;fill-rule:nonzero;fill:rgb(0%,0%,0%);fill-opacity:1;" d="M 101.25 83.050781 C 101.25 83.164062 101.335938 83.25 101.449219 83.25 C 101.5625 83.25 101.625 83.1875 101.601562 83.101562 C 101.523438 82.875 101.25 82.835938 101.25 83.050781 Z M 101.25 83.050781 "/>
<path style=" stroke:none;fill-rule:nonzero;fill:rgb(0%,0%,0%);fill-opacity:1;" d="M 27.210938 83.449219 C 27.039062 83.636719 27.136719 83.875 27.386719 83.875 C 27.5625 83.875 27.625 83.8125 27.601562 83.664062 C 27.5625 83.4375 27.351562 83.324219 27.210938 83.449219 Z M 27.210938 83.449219 "/>
<path style=" stroke:none;fill-rule:nonzero;fill:rgb(0%,0%,0%);fill-opacity:1;" d="M 100.675781 84.175781 C 100.574219 84.449219 100.710938 84.585938 100.898438 84.398438 C 101.011719 84.289062 101.011719 84.210938 100.898438 84.101562 C 100.789062 83.988281 100.738281 84.011719 100.675781 84.175781 Z M 100.675781 84.175781 "/>
<path style=" stroke:none;fill-rule:nonzero;fill:rgb(0%,0%,0%);fill-opacity:1;" d="M 27.875 84.8125 C 27.875 84.914062 27.960938 85 28.0625 85 C 28.164062 85 28.25 84.914062 28.25 84.8125 C 28.25 84.710938 28.164062 84.625 28.0625 84.625 C 27.960938 84.625 27.875 84.710938 27.875 84.8125 Z M 27.875 84.8125 "/>
<path style=" stroke:none;fill-rule:nonzero;fill:rgb(0%,0%,0%);fill-opacity:1;" d="M 100 85.324219 C 100 85.539062 100.273438 85.5 100.351562 85.273438 C 100.375 85.1875 100.3125 85.125 100.199219 85.125 C 100.085938 85.125 100 85.210938 100 85.324219 Z M 100 85.324219 "/>
<path style=" stroke:none;fill-rule:nonzero;fill:rgb(0%,0%,0%);fill-opacity:1;" d="M 28.5 85.925781 C 28.5 86.011719 28.585938 86.164062 28.6875 86.25 C 28.925781 86.449219 29.199219 86.238281 29.085938 85.949219 C 28.988281 85.699219 28.5 85.6875 28.5 85.925781 Z M 28.5 85.925781 "/>
<path style=" stroke:none;fill-rule:nonzero;fill:rgb(0%,0%,0%);fill-opacity:1;" d="M 99.425781 86.175781 C 99.324219 86.449219 99.460938 86.585938 99.648438 86.398438 C 99.761719 86.289062 99.761719 86.210938 99.648438 86.101562 C 99.539062 85.988281 99.488281 86.011719 99.425781 86.175781 Z M 99.425781 86.175781 "/>
<path style=" stroke:none;fill-rule:nonzero;fill:rgb(0%,0%,0%);fill-opacity:1;" d="M 29.300781 87.050781 C 29.199219 87.3125 29.335938 87.5 29.636719 87.5 C 29.824219 87.5 29.886719 87.425781 29.851562 87.226562 C 29.800781 86.886719 29.414062 86.761719 29.300781 87.050781 Z M 29.300781 87.050781 "/>
<path style=" stroke:none;fill-rule:nonzero;fill:rgb(0%,0%,0%);fill-opacity:1;" d="M 98.625 87.1875 C 98.5 87.324219 98.5 87.425781 98.601562 87.523438 C 98.789062 87.710938 99.148438 87.550781 99.101562 87.289062 C 99.050781 87 98.824219 86.949219 98.625 87.1875 Z M 98.625 87.1875 "/>
<path style=" stroke:none;fill-rule:nonzero;fill:rgb(0%,0%,0%);fill-opacity:1;" d="M 94.1875 87.675781 C 94.050781 87.773438 93.988281 87.914062 94.039062 88.050781 C 94.148438 88.324219 94.550781 88.261719 94.601562 87.949219 C 94.675781 87.613281 94.460938 87.476562 94.1875 87.675781 Z M 94.1875 87.675781 "/>
<path style=" stroke:none;fill-rule:nonzero;fill:rgb(0%,0%,0%);fill-opacity:1;" d="M 30.148438 88.210938 C 30.175781 88.335938 30.273438 88.4375 30.375 88.4375 C 30.648438 88.4375 30.601562 88.074219 30.335938 88.023438 C 30.164062 87.988281 30.113281 88.039062 30.148438 88.210938 Z M 30.148438 88.210938 "/>
<path style=" stroke:none;fill-rule:nonzero;fill:rgb(0%,0%,0%);fill-opacity:1;" d="M 97.75 88.476562 C 97.75 88.773438 97.851562 88.875 98.074219 88.789062 C 98.351562 88.6875 98.289062 88.25 98 88.25 C 97.835938 88.25 97.75 88.335938 97.75 88.476562 Z M 97.75 88.476562 "/>
<path style=" stroke:none;fill-rule:nonzero;fill:rgb(0%,0%,0%);fill-opacity:1;" d="M 30.925781 89.0625 C 30.800781 89.375 30.960938 89.613281 31.238281 89.539062 C 31.550781 89.460938 31.585938 89.0625 31.300781 88.949219 C 31.023438 88.851562 31 88.851562 30.925781 89.0625 Z M 30.925781 89.0625 "/>
<path style=" stroke:none;fill-rule:nonzero;fill:rgb(0%,0%,0%);fill-opacity:1;" d="M 97 89.539062 C 97 89.800781 97.148438 89.886719 97.335938 89.738281 C 97.574219 89.539062 97.539062 89.375 97.25 89.375 C 97.113281 89.375 97 89.449219 97 89.539062 Z M 97 89.539062 "/>
<path style=" stroke:none;fill-rule:nonzero;fill:rgb(0%,0%,0%);fill-opacity:1;" d="M 35.25 89.738281 C 35.25 89.800781 35.3125 89.898438 35.375 89.9375 C 35.449219 89.976562 35.5 89.960938 35.5 89.886719 C 35.5 89.824219 35.449219 89.726562 35.375 89.6875 C 35.3125 89.648438 35.25 89.664062 35.25 89.738281 Z M 35.25 89.738281 "/>
<path style=" stroke:none;fill-rule:nonzero;fill:rgb(0%,0%,0%);fill-opacity:1;" d="M 31.75 90.113281 C 31.75 90.414062 31.976562 90.574219 32.148438 90.398438 C 32.25 90.300781 32.238281 90.199219 32.125 90.0625 C 31.914062 89.800781 31.75 89.824219 31.75 90.113281 Z M 31.75 90.113281 "/>
<path style=" stroke:none;fill-rule:nonzero;fill:rgb(0%,0%,0%);fill-opacity:1;" d="M 96.023438 90.363281 C 95.925781 90.425781 95.875 90.574219 95.898438 90.699219 C 95.949219 91 96.5625 91.101562 96.664062 90.824219 C 96.835938 90.375 96.4375 90.085938 96.023438 90.363281 Z M 96.023438 90.363281 "/>
<path style=" stroke:none;fill-rule:nonzero;fill:rgb(0%,0%,0%);fill-opacity:1;" d="M 36 90.625 C 36 90.6875 36.085938 90.75 36.1875 90.75 C 36.289062 90.75 36.375 90.6875 36.375 90.625 C 36.375 90.550781 36.289062 90.5 36.1875 90.5 C 36.085938 90.5 36 90.550781 36 90.625 Z M 36 90.625 "/>
<path style=" stroke:none;fill-rule:nonzero;fill:rgb(0%,0%,0%);fill-opacity:1;" d="M 32.925781 91.3125 C 32.886719 91.414062 32.886719 91.550781 32.9375 91.625 C 33.074219 91.835938 33.375 91.761719 33.375 91.511719 C 33.375 91.226562 33.011719 91.0625 32.925781 91.3125 Z M 32.925781 91.3125 "/>
<path style=" stroke:none;fill-rule:nonzero;fill:rgb(0%,0%,0%);fill-opacity:1;" d="M 90.585938 91.574219 C 90.539062 91.625 90.5 91.773438 90.5 91.898438 C 90.5 92.074219 90.574219 92.136719 90.789062 92.101562 C 90.960938 92.074219 91.0625 91.976562 91.0625 91.8125 C 91.0625 91.5625 90.75 91.414062 90.585938 91.574219 Z M 90.585938 91.574219 "/>
<path style=" stroke:none;fill-rule:nonzero;fill:rgb(0%,0%,0%);fill-opacity:1;" d="M 95.25 91.75 C 95.25 91.886719 95.300781 92 95.363281 92 C 95.5 92 95.636719 91.675781 95.539062 91.574219 C 95.386719 91.425781 95.25 91.511719 95.25 91.75 Z M 95.25 91.75 "/>
<path style=" stroke:none;fill-rule:nonzero;fill:rgb(0%,0%,0%);fill-opacity:1;" d="M 88.9375 93.074219 C 87.125 94.425781 87.136719 94.414062 87.6875 94.125 C 88.4375 93.710938 90.539062 92.074219 90.238281 92.136719 C 90.210938 92.136719 89.625 92.5625 88.9375 93.074219 Z M 88.9375 93.074219 "/>
<path style=" stroke:none;fill-rule:nonzero;fill:rgb(0%,0%,0%);fill-opacity:1;" d="M 37.625 92.398438 C 37.625 92.664062 37.886719 92.875 38.226562 92.875 C 38.460938 92.875 38.511719 92.8125 38.476562 92.585938 C 38.449219 92.375 38.335938 92.300781 38.039062 92.273438 C 37.75 92.25 37.625 92.289062 37.625 92.398438 Z M 37.625 92.398438 "/>
<path style=" stroke:none;fill-rule:nonzero;fill:rgb(0%,0%,0%);fill-opacity:1;" d="M 34.25 92.5625 C 34.148438 92.6875 34.113281 92.9375 34.164062 93.261719 C 34.226562 93.773438 34.226562 93.800781 33.023438 95.050781 C 32.363281 95.738281 31.488281 96.6875 31.0625 97.136719 C 30.648438 97.585938 31.238281 97.011719 32.386719 95.851562 C 34.273438 93.925781 34.488281 93.75 34.886719 93.75 C 35.125 93.75 35.386719 93.6875 35.476562 93.601562 C 35.6875 93.386719 35.664062 92.800781 35.425781 92.574219 C 35.175781 92.324219 34.449219 92.3125 34.25 92.5625 Z M 34.25 92.5625 "/>
<path style=" stroke:none;fill-rule:nonzero;fill:rgb(0%,0%,0%);fill-opacity:1;" d="M 94.300781 92.511719 C 94.175781 92.726562 94.460938 92.960938 94.636719 92.789062 C 94.789062 92.636719 94.6875 92.375 94.5 92.375 C 94.4375 92.375 94.351562 92.4375 94.300781 92.511719 Z M 94.300781 92.511719 "/>
<path style=" stroke:none;fill-rule:nonzero;fill:rgb(0%,0%,0%);fill-opacity:1;" d="M 92.574219 93.398438 C 92.148438 94 92.476562 94.5 93.25 94.5 C 93.6875 94.5 93.851562 94.613281 94.835938 95.523438 L 95.9375 96.550781 L 94.875 95.460938 C 93.898438 94.460938 93.824219 94.335938 93.863281 93.9375 C 93.898438 93.363281 93.699219 93.125 93.175781 93.125 C 92.886719 93.125 92.699219 93.210938 92.574219 93.398438 Z M 92.574219 93.398438 "/>
<path style=" stroke:none;fill-rule:nonzero;fill:rgb(0%,0%,0%);fill-opacity:1;" d="M 39.9375 94.125 C 40.0625 94.261719 40.1875 94.375 40.226562 94.375 C 40.261719 94.375 40.1875 94.261719 40.0625 94.125 C 39.9375 93.988281 39.8125 93.875 39.773438 93.875 C 39.738281 93.875 39.8125 93.988281 39.9375 94.125 Z M 39.9375 94.125 "/>
<path style=" stroke:none;fill-rule:nonzero;fill:rgb(0%,0%,0%);fill-opacity:1;" d="M 36.273438 94.710938 C 36.300781 94.976562 36.386719 95.074219 36.613281 95.101562 C 36.988281 95.164062 37.175781 94.976562 37.0625 94.636719 C 37 94.449219 36.875 94.375 36.613281 94.375 C 36.273438 94.375 36.238281 94.414062 36.273438 94.710938 Z M 36.273438 94.710938 "/>
<path style=" stroke:none;fill-rule:nonzero;fill:rgb(0%,0%,0%);fill-opacity:1;" d="M 40.875 94.738281 C 40.875 94.914062 41.585938 95.488281 42.574219 96.101562 C 43.6875 96.789062 45.375 97.664062 45.449219 97.601562 C 45.476562 97.574219 45.113281 97.324219 44.648438 97.0625 C 44.1875 96.800781 43.148438 96.136719 42.351562 95.613281 C 41.539062 95.085938 40.875 94.6875 40.875 94.738281 Z M 40.875 94.738281 "/>
<path style=" stroke:none;fill-rule:nonzero;fill:rgb(0%,0%,0%);fill-opacity:1;" d="M 37.835938 95.574219 C 37.664062 95.761719 37.761719 96.113281 38.011719 96.1875 C 38.363281 96.300781 38.601562 96.0625 38.425781 95.773438 C 38.273438 95.539062 37.976562 95.4375 37.835938 95.574219 Z M 37.835938 95.574219 "/>
<path style=" stroke:none;fill-rule:nonzero;fill:rgb(0%,0%,0%);fill-opacity:1;" d="M 90.550781 95.675781 C 90.425781 96 90.601562 96.273438 90.898438 96.226562 C 91.113281 96.199219 91.1875 96.101562 91.1875 95.875 C 91.1875 95.648438 91.113281 95.550781 90.898438 95.523438 C 90.738281 95.5 90.585938 95.5625 90.550781 95.675781 Z M 90.550781 95.675781 "/>
<path style=" stroke:none;fill-rule:nonzero;fill:rgb(0%,0%,0%);fill-opacity:1;" d="M 39.175781 96.6875 C 39.074219 96.9375 39.226562 97.125 39.511719 97.125 C 39.800781 97.125 39.835938 96.6875 39.550781 96.574219 C 39.273438 96.476562 39.25 96.476562 39.175781 96.6875 Z M 39.175781 96.6875 "/>
<path style=" stroke:none;fill-rule:nonzero;fill:rgb(0%,0%,0%);fill-opacity:1;" d="M 89.5 96.9375 C 89.5 97.039062 89.5625 97.125 89.625 97.125 C 89.699219 97.125 89.75 97.039062 89.75 96.9375 C 89.75 96.835938 89.699219 96.75 89.625 96.75 C 89.5625 96.75 89.5 96.835938 89.5 96.9375 Z M 89.5 96.9375 "/>
<path style=" stroke:none;fill-rule:nonzero;fill:rgb(0%,0%,0%);fill-opacity:1;" d="M 40.5 97.738281 C 40.5 98.011719 40.863281 98.1875 41.039062 98.011719 C 41.226562 97.824219 41.039062 97.5 40.75 97.5 C 40.585938 97.5 40.5 97.585938 40.5 97.738281 Z M 40.5 97.738281 "/>
<path style=" stroke:none;fill-rule:nonzero;fill:rgb(0%,0%,0%);fill-opacity:1;" d="M 88.375 97.6875 C 88.375 97.800781 88.4375 97.875 88.511719 97.851562 C 88.585938 97.824219 88.648438 97.75 88.648438 97.6875 C 88.648438 97.625 88.585938 97.550781 88.511719 97.523438 C 88.4375 97.5 88.375 97.574219 88.375 97.6875 Z M 88.375 97.6875 "/>
<path style=" stroke:none;fill-rule:nonzero;fill:rgb(0%,0%,0%);fill-opacity:1;" d="M 41.960938 98.335938 C 41.789062 98.5 41.886719 98.75 42.125 98.75 C 42.261719 98.75 42.375 98.699219 42.375 98.636719 C 42.375 98.476562 42.050781 98.238281 41.960938 98.335938 Z M 41.960938 98.335938 "/>
<path style=" stroke:none;fill-rule:nonzero;fill:rgb(0%,0%,0%);fill-opacity:1;" d="M 87.375 98.449219 C 87.375 98.550781 87.4375 98.601562 87.5 98.5625 C 87.574219 98.511719 87.601562 98.425781 87.5625 98.363281 C 87.449219 98.1875 87.375 98.226562 87.375 98.449219 Z M 87.375 98.449219 "/>
<path style=" stroke:none;fill-rule:nonzero;fill:rgb(0%,0%,0%);fill-opacity:1;" d="M 80 98.8125 C 79.824219 98.914062 79.75 98.988281 79.8125 98.988281 C 79.886719 98.988281 80.074219 98.914062 80.25 98.8125 C 80.425781 98.710938 80.511719 98.636719 80.4375 98.636719 C 80.375 98.636719 80.175781 98.710938 80 98.8125 Z M 80 98.8125 "/>
<path style=" stroke:none;fill-rule:nonzero;fill:rgb(0%,0%,0%);fill-opacity:1;" d="M 43.148438 99.273438 C 43.175781 99.425781 43.273438 99.5625 43.375 99.5625 C 43.648438 99.5625 43.613281 99.074219 43.335938 99.023438 C 43.148438 98.988281 43.113281 99.039062 43.148438 99.273438 Z M 43.148438 99.273438 "/>
<path style=" stroke:none;fill-rule:nonzero;fill:rgb(0%,0%,0%);fill-opacity:1;" d="M 86.25 99.125 C 86.25 99.1875 86.3125 99.25 86.375 99.25 C 86.449219 99.25 86.5 99.1875 86.5 99.125 C 86.5 99.050781 86.449219 99 86.375 99 C 86.3125 99 86.25 99.050781 86.25 99.125 Z M 86.25 99.125 "/>
<path style=" stroke:none;fill-rule:nonzero;fill:rgb(0%,0%,0%);fill-opacity:1;" d="M 78.5 99.449219 C 76.773438 100.1875 73.289062 101.175781 70.726562 101.636719 C 70.25 101.726562 69.875 101.835938 69.875 101.898438 C 69.875 102.136719 72.800781 101.5625 74.875 100.925781 C 76.226562 100.5 79.375 99.273438 79.375 99.175781 C 79.375 99.085938 79.199219 99.136719 78.5 99.449219 Z M 78.5 99.449219 "/>
<path style=" stroke:none;fill-rule:nonzero;fill:rgb(0%,0%,0%);fill-opacity:1;" d="M 85.25 99.699219 C 85.25 99.800781 85.3125 99.851562 85.375 99.8125 C 85.449219 99.761719 85.476562 99.675781 85.4375 99.613281 C 85.324219 99.4375 85.25 99.476562 85.25 99.699219 Z M 85.25 99.699219 "/>
<path style=" stroke:none;fill-rule:nonzero;fill:rgb(0%,0%,0%);fill-opacity:1;" d="M 44.398438 100.023438 C 44.4375 100.335938 44.851562 100.488281 45 100.238281 C 45.164062 99.988281 45 99.75 44.664062 99.75 C 44.414062 99.75 44.363281 99.800781 44.398438 100.023438 Z M 44.398438 100.023438 "/>
<path style=" stroke:none;fill-rule:nonzero;fill:rgb(0%,0%,0%);fill-opacity:1;" d="M 78.976562 100.539062 C 77.960938 100.949219 77.148438 101.3125 77.175781 101.335938 C 77.238281 101.398438 80.324219 100.226562 80.824219 99.960938 C 81.585938 99.550781 80.75 99.8125 78.976562 100.539062 Z M 78.976562 100.539062 "/>
<path style=" stroke:none;fill-rule:nonzero;fill:rgb(0%,0%,0%);fill-opacity:1;" d="M 84.125 100.3125 C 84.125 100.414062 84.1875 100.5 84.25 100.5 C 84.324219 100.5 84.375 100.414062 84.375 100.3125 C 84.375 100.210938 84.324219 100.125 84.25 100.125 C 84.1875 100.125 84.125 100.210938 84.125 100.3125 Z M 84.125 100.3125 "/>
<path style=" stroke:none;fill-rule:nonzero;fill:rgb(0%,0%,0%);fill-opacity:1;" d="M 83.25 100.75 C 83.25 100.8125 83.3125 100.875 83.375 100.875 C 83.449219 100.875 83.5 100.8125 83.5 100.75 C 83.5 100.675781 83.449219 100.625 83.375 100.625 C 83.3125 100.625 83.25 100.675781 83.25 100.75 Z M 83.25 100.75 "/>
<path style=" stroke:none;fill-rule:nonzero;fill:rgb(0%,0%,0%);fill-opacity:1;" d="M 82.148438 101.261719 C 82.175781 101.335938 82.25 101.386719 82.3125 101.386719 C 82.375 101.386719 82.449219 101.335938 82.476562 101.261719 C 82.5 101.1875 82.425781 101.125 82.3125 101.125 C 82.199219 101.125 82.125 101.1875 82.148438 101.261719 Z M 82.148438 101.261719 "/>
<path style=" stroke:none;fill-rule:nonzero;fill:rgb(0%,0%,0%);fill-opacity:1;" d="M 81.125 101.75 C 81.125 101.8125 81.1875 101.875 81.25 101.875 C 81.324219 101.875 81.375 101.8125 81.375 101.75 C 81.375 101.675781 81.324219 101.625 81.25 101.625 C 81.1875 101.625 81.125 101.675781 81.125 101.75 Z M 81.125 101.75 "/>
<path style=" stroke:none;fill-rule:nonzero;fill:rgb(0%,0%,0%);fill-opacity:1;" d="M 79.949219 102.113281 C 79.898438 102.175781 79.925781 102.261719 79.988281 102.300781 C 80.050781 102.351562 80.136719 102.324219 80.175781 102.261719 C 80.226562 102.199219 80.199219 102.113281 80.136719 102.074219 C 80.074219 102.023438 79.988281 102.050781 79.949219 102.113281 Z M 79.949219 102.113281 "/>
<path style=" stroke:none;fill-rule:nonzero;fill:rgb(0%,0%,0%);fill-opacity:1;" d="M 78.875 102.5625 C 78.875 102.675781 78.9375 102.75 79.011719 102.726562 C 79.085938 102.699219 79.148438 102.625 79.148438 102.5625 C 79.148438 102.5 79.085938 102.425781 79.011719 102.398438 C 78.9375 102.375 78.875 102.449219 78.875 102.5625 Z M 78.875 102.5625 "/>
<path style=" stroke:none;fill-rule:nonzero;fill:rgb(0%,0%,0%);fill-opacity:1;" d="M 77.6875 102.875 C 77.636719 102.949219 77.648438 103.074219 77.726562 103.148438 C 77.800781 103.226562 77.875 103.226562 77.9375 103.125 C 77.988281 103.050781 77.976562 102.925781 77.898438 102.851562 C 77.824219 102.773438 77.75 102.773438 77.6875 102.875 Z M 77.6875 102.875 "/>
<path style=" stroke:none;fill-rule:nonzero;fill:rgb(0%,0%,0%);fill-opacity:1;" d="M 76.425781 103.261719 C 76.300781 103.476562 76.585938 103.710938 76.761719 103.539062 C 76.914062 103.386719 76.8125 103.125 76.625 103.125 C 76.5625 103.125 76.476562 103.1875 76.425781 103.261719 Z M 76.425781 103.261719 "/>
<path style=" stroke:none;fill-rule:nonzero;fill:rgb(0%,0%,0%);fill-opacity:1;" d="M 75.4375 103.5 C 75.335938 103.664062 75.476562 103.875 75.6875 103.875 C 75.863281 103.875 76.023438 103.574219 75.914062 103.449219 C 75.789062 103.335938 75.523438 103.363281 75.4375 103.5 Z M 75.4375 103.5 "/>
<path style=" stroke:none;fill-rule:nonzero;fill:rgb(0%,0%,0%);fill-opacity:1;" d="M 74.125 103.875 C 74.125 104.039062 74.210938 104.125 74.375 104.125 C 74.539062 104.125 74.625 104.039062 74.625 103.875 C 74.625 103.710938 74.539062 103.625 74.375 103.625 C 74.210938 103.625 74.125 103.710938 74.125 103.875 Z M 74.125 103.875 "/>
<path style=" stroke:none;fill-rule:nonzero;fill:rgb(0%,0%,0%);fill-opacity:1;" d="M 73.039062 103.835938 C 72.949219 103.863281 72.875 104 72.875 104.136719 C 72.875 104.300781 72.960938 104.375 73.175781 104.375 C 73.511719 104.375 73.675781 104.101562 73.460938 103.886719 C 73.3125 103.738281 73.273438 103.738281 73.039062 103.835938 Z M 73.039062 103.835938 "/>
</g>
</svg>
